<svg width="56" height="56" viewBox="0 0 56 56" fill="none" xmlns="http://www.w3.org/2000/svg">
<mask id="mask0_1831_30529" style="mask-type:alpha" maskUnits="userSpaceOnUse" x="9" y="9" width="38" height="38">
<rect x="45.2357" y="45.4935" width="1.93382" height="1.93382" rx="0.966911" transform="rotate(180 45.2357 45.4935)" fill="white" stroke="white" stroke-width="1.93382"/>
<rect x="45.2357" y="12.747" width="1.93382" height="1.93382" rx="0.966911" transform="rotate(180 45.2357 12.747)" fill="white" stroke="white" stroke-width="1.93382"/>
<rect x="12.4891" y="12.747" width="1.93382" height="1.93382" rx="0.966911" transform="rotate(180 12.4891 12.747)" fill="white" stroke="white" stroke-width="1.93382"/>
<rect x="12.4891" y="45.4935" width="1.93382" height="1.93382" rx="0.966911" transform="rotate(180 12.4891 45.4935)" fill="white" stroke="white" stroke-width="1.93382"/>
<path fill-rule="evenodd" clip-rule="evenodd" d="M13.9409 14.0589L14.0122 13.9902L14.0866 13.9246L14.164 13.8623L14.2445 13.8033L14.328 13.7475L14.4144 13.6951L14.5037 13.646L14.5958 13.6004L14.6906 13.5582L14.7882 13.5194L14.8885 13.4842L14.9913 13.4525L15.0966 13.4243L15.2045 13.3997L15.3148 13.3786L15.4274 13.3612L15.5423 13.3474L15.6594 13.3372L15.7787 13.3307L15.9001 13.3279L16.0235 13.3287L16.1489 13.3332L16.2762 13.3414L16.4053 13.3533L16.5361 13.3688L16.6686 13.3881L16.8028 13.411L16.9385 13.4376L17.0756 13.4679L17.2142 13.5018L17.354 13.5394L17.4951 13.5806L17.6374 13.6255L17.7808 13.6739L17.9253 13.726L18.0706 13.7816L18.2169 13.8408L18.364 13.9034L18.5118 13.9696L18.6603 14.0392L18.8093 14.1123L18.9589 14.1888L19.1089 14.2686L19.2593 14.3517L19.41 14.4382L19.5609 14.5279L19.7119 14.6208L19.863 14.7168L20.0142 14.816L20.1652 14.9182L20.3162 15.0235L20.4669 15.1317L20.6173 15.2429L20.7675 15.3569L20.9172 15.4737L21.0664 15.5932L21.2151 15.7155L21.3632 15.8403L21.5106 15.9677L21.6573 16.0977L21.8032 16.23L21.9482 16.3647L22.0923 16.5017L22.2354 16.641L22.3775 16.7823L22.5186 16.9258L22.6584 17.0713L22.7971 17.2187L22.9345 17.368L23.0706 17.519L23.2054 17.6718L23.3387 17.8262L23.4706 17.9821L23.601 18.1394L23.7299 18.2982L23.8571 18.4582L23.9828 18.6195L24.1067 18.7819L24.229 18.9453L24.3495 19.1097L24.4682 19.2749L24.5851 19.4409L24.7002 19.6077L24.8134 19.775L24.9246 19.9428L25.034 20.1111L25.1413 20.2797L25.2467 20.4485L25.35 20.6175L25.4514 20.7865L25.5506 20.9556L25.6478 21.1245L25.7429 21.2932L25.8359 21.4616L25.9268 21.6296L26.0156 21.7972L26.1022 21.9642L26.1867 22.1305L26.269 22.296L26.3492 22.4608L26.4273 22.6246L26.5031 22.7874L26.5769 22.9491L26.6484 23.1095L26.7178 23.2688L26.7851 23.4266L26.8503 23.583L26.9133 23.7379L26.9742 23.8911L27.0331 24.0427L27.0898 24.1925L27.1445 24.3404L27.1971 24.4863L27.2477 24.6302L27.2962 24.772L27.3428 24.9117L27.3875 25.0491L27.4302 25.1841L27.4709 25.3167L27.5098 25.4469L27.5469 25.5745L27.5821 25.6995L27.6156 25.8218L27.6473 25.9413L27.6772 26.058L27.7055 26.1718L27.7322 26.2827L27.7572 26.3906L27.7807 26.4954L27.8027 26.597L27.8232 26.6955L27.8422 26.7908L27.8599 26.8827L27.8762 26.9713L27.8912 27.0566L27.905 27.1384L27.9176 27.2167L27.929 27.2915L27.9393 27.3627L27.9486 27.4303L27.9569 27.4943L27.9643 27.5546L27.9708 27.6112L27.9764 27.664L27.9813 27.7131L27.9854 27.7584L27.9889 27.7998L27.9917 27.8374L27.9941 27.8711L27.9959 27.901L27.9973 27.9269L27.9983 27.949L27.999 27.9671L27.9995 27.9812L27.9997 27.9914L27.9998 27.9977L27.9998 28L27.9998 27.9983L27.9999 27.9927L28 27.9831L28.0003 27.9696L28.0008 27.9521L28.0016 27.9307L28.0027 27.9054L28.0042 27.8761L28.0062 27.843L28.0086 27.806L28.0117 27.7651L28.0153 27.7204L28.0197 27.6719L28.0247 27.6196L28.0306 27.5636L28.0373 27.5038L28.0449 27.4403L28.0535 27.3732L28.063 27.3025L28.0737 27.2282L28.0854 27.1503L28.0983 27.069L28.1124 26.9842L28.1278 26.8959L28.1445 26.8044L28.1625 26.7095L28.1819 26.6113L28.2028 26.51L28.2252 26.4055L28.249 26.2979L28.2745 26.1873L28.3016 26.0737L28.3303 25.9572L28.3607 25.8379L28.3929 25.7157L28.4267 25.5909L28.4624 25.4634L28.4999 25.3333L28.5393 25.2007L28.5806 25.0657L28.6237 24.9283L28.6688 24.7887L28.7159 24.6468L28.765 24.5028L28.816 24.3567L28.8691 24.2087L28.9243 24.0587L28.9815 23.907L29.0408 23.7535L29.1022 23.5984L29.1657 23.4417L29.2313 23.2835L29.299 23.1239L29.3689 22.963L29.4409 22.8009L29.5151 22.6376L29.5914 22.4733L29.6698 22.3081L29.7504 22.142L29.8332 21.975L29.9181 21.8074L30.0051 21.6392L30.0942 21.4705L30.1855 21.3014L30.2788 21.132L30.3743 20.9623L30.4718 20.7924L30.5713 20.6225L30.6729 20.4526L30.7766 20.2829L30.8822 20.1134L30.9898 19.9441L31.0993 19.7753L31.2108 19.6069L31.3241 19.4392L31.4393 19.2721L31.5564 19.1057L31.6752 18.9402L31.7958 18.7756L31.9181 18.612L32.0421 18.4495L32.1678 18.2882L32.2951 18.1281L32.4239 17.9694L32.5542 17.8122L32.686 17.6565L32.8193 17.5023L32.9539 17.3498L33.0898 17.1991L33.2271 17.0503L33.3655 16.9033L33.5051 16.7583L33.6459 16.6154L33.7877 16.4746L33.9305 16.336L34.0742 16.1998L34.2189 16.0658L34.3643 15.9343L34.5105 15.8052L34.6575 15.6787L34.805 15.5548L34.9532 15.4336L35.1018 15.3151L35.2509 15.1994L35.4003 15.0865L35.5501 14.9765L35.7001 14.8695L35.8503 14.7655L36.0006 14.6646L36.1509 14.5668L36.3012 14.4721L36.4513 14.3806L36.6013 14.2924L36.751 14.2075L36.9004 14.1258L37.0494 14.0476L37.1979 13.9727L37.3459 13.9013L37.4933 13.8333L37.6399 13.7689L37.7858 13.7079L37.9309 13.6505L38.075 13.5967L38.2182 13.5464L38.3602 13.4998L38.5012 13.4568L38.6409 13.4175L38.7794 13.3818L38.9165 13.3498L39.0522 13.3214L39.1864 13.2968L39.319 13.2758L39.45 13.2586L39.5793 13.245L39.7067 13.2352L39.8324 13.2291L39.9561 13.2266L40.0778 13.2278L40.1975 13.2328L40.3151 13.2414L40.4304 13.2536L40.5436 13.2695L40.6544 13.289L40.7628 13.3122L40.8688 13.3389L40.9723 13.3692L41.0732 13.403L41.1716 13.4404L41.2672 13.4812L41.3601 13.5256L41.4503 13.5733L41.5376 13.6245L41.622 13.679L41.7034 13.7368L41.7819 13.798L41.8573 13.8624L41.9297 13.93L41.9989 14.0008L42.065 14.0747L42.1278 14.1517L42.1874 14.2317L42.2437 14.3147L42.2966 14.4006L42.3462 14.4894L42.3924 14.5811L42.4351 14.6755L42.4744 14.7727L42.5102 14.8725L42.5425 14.9749L42.5713 15.0799L42.5965 15.1873L42.6181 15.2972L42.6361 15.4094L42.6505 15.524L42.6612 15.6408L42.6683 15.7597L42.6717 15.8808L42.6715 16.0039L42.6676 16.129L42.66 16.2559L42.6487 16.3847L42.6337 16.5153L42.6151 16.6476L42.5927 16.7815L42.5667 16.9169L42.537 17.0538L42.5037 17.1922L42.4666 17.3318L42.426 17.4727L42.3817 17.6149L42.3338 17.7581L42.2823 17.9024L42.2273 18.0476L42.1687 18.1937L42.1066 18.3407L42.041 18.4884L41.9719 18.6368L41.8994 18.7857L41.8234 18.9352L41.7442 19.0852L41.6615 19.2355L41.5756 19.3861L41.4864 19.537L41.394 19.688L41.2985 19.8391L41.1998 19.9903L41.098 20.1413L40.9933 20.2923L40.8855 20.4431L40.7748 20.5936L40.6613 20.7437L40.5449 20.8935L40.4258 21.0428L40.304 21.1916L40.1796 21.3398L40.0525 21.4873L39.923 21.6341L39.791 21.7801L39.6567 21.9253L39.5201 22.0696L39.3812 22.2129L39.2401 22.3552L39.097 22.4963L38.9518 22.6364L38.8047 22.7753L38.6557 22.9129L38.505 23.0492L38.3525 23.1842L38.1983 23.3178L38.0427 23.4499L37.8855 23.5805L37.727 23.7096L37.5671 23.8371L37.4061 23.963L37.2439 24.0873L37.0806 24.2098L36.9164 24.3306L36.7513 24.4496L36.5853 24.5668L36.4187 24.6822L36.2515 24.7956L36.0838 24.9072L35.9156 25.0168L35.747 25.1245L35.5782 25.2302L35.4092 25.3339L35.2402 25.4355L35.0711 25.5351L34.9022 25.6326L34.7335 25.7281L34.565 25.8214L34.3969 25.9126L34.2293 26.0018L34.0622 26.0887L33.8958 26.1735L33.7301 26.2562L33.5652 26.3368L33.4013 26.4151L33.2383 26.4914L33.0764 26.5654L32.9157 26.6373L32.7563 26.7071L32.5982 26.7747L32.4416 26.8402L32.2865 26.9036L32.133 26.9648L31.9811 27.024L31.8311 27.0811L31.6829 27.1361L31.5366 27.189L31.3924 27.2399L31.2502 27.2888L31.1102 27.3357L30.9725 27.3807L30.8371 27.4237L30.704 27.4647L30.5735 27.5039L30.4455 27.5413L30.3201 27.5768L30.1973 27.6105L30.0774 27.6425L29.9602 27.6727L29.8459 27.7013L29.7346 27.7282L29.6262 27.7535L29.5209 27.7772L29.4188 27.7994L29.3198 27.8202L29.224 27.8394L29.1315 27.8573L29.0424 27.8739L28.9566 27.8891L28.8742 27.9031L28.7954 27.9158L28.72 27.9274L28.6482 27.9379L28.58 27.9474L28.5155 27.9558L28.4546 27.9633L28.3974 27.97L28.344 27.9757L28.2943 27.9807L28.2484 27.985L28.2063 27.9885L28.1681 27.9915L28.1338 27.9939L28.1033 27.9958L28.0767 27.9973L28.0541 27.9983L28.0354 27.9991L28.0206 27.9996L28.0097 27.9998L28.0029 28L27.9999 28L28.001 28L28.006 28L28.0149 28.0001L28.0278 28.0004L28.0447 28.0009L28.0654 28.0016L28.0901 28.0027L28.1188 28.0041L28.1513 28.006L28.1877 28.0084L28.2279 28.0113L28.272 28.0149L28.3199 28.0191L28.3716 28.024L28.4271 28.0298L28.4862 28.0363L28.5491 28.0438L28.6156 28.0522L28.6858 28.0616L28.7596 28.0721L28.8369 28.0836L28.9177 28.0963L29.0019 28.1103L29.0896 28.1254L29.1806 28.1419L29.275 28.1597L29.3726 28.1789L29.4735 28.1995L29.5775 28.2217L29.6845 28.2453L29.7947 28.2705L29.9078 28.2973L30.0238 28.3258L30.1427 28.3559L30.2644 28.3878L30.3889 28.4214L30.5159 28.4568L30.6456 28.494L30.7778 28.5331L30.9124 28.574L31.0494 28.6169L31.1887 28.6617L31.3303 28.7084L31.4739 28.7572L31.6197 28.8079L31.7674 28.8607L31.9171 28.9155L32.0685 28.9724L32.2217 29.0314L32.3766 29.0924L32.5331 29.1556L32.691 29.2209L32.8504 29.2883L33.0111 29.3578L33.173 29.4295L33.3361 29.5033L33.5002 29.5793L33.6653 29.6574L33.8313 29.7376L33.9981 29.82L34.1656 29.9046L34.3337 29.9912L34.5024 30.08L34.6714 30.171L34.8408 30.264L35.0105 30.3591L35.1803 30.4563L35.3502 30.5555L35.5201 30.6568L35.6899 30.7601L35.8595 30.8654L36.0287 30.9727L36.1976 31.0819L36.3661 31.1931L36.534 31.3061L36.7012 31.421L36.8677 31.5378L37.0333 31.6563L37.1981 31.7766L37.3618 31.8987L37.5245 32.0224L37.686 32.1478L37.8463 32.2748L38.0052 32.4034L38.1627 32.5335L38.3187 32.6651L38.4731 32.7981L38.6258 32.9325L38.7768 33.0683L38.926 33.2053L39.0732 33.3436L39.2185 33.483L39.3618 33.6236L39.5029 33.7652L39.6418 33.9078L39.7785 34.0514L39.9128 34.1959L40.0448 34.3413L40.1742 34.4874L40.3011 34.6342L40.4255 34.7816L40.5471 34.9297L40.6661 35.0783L40.7822 35.2273L40.8955 35.3767L41.006 35.5264L41.1134 35.6764L41.2179 35.8265L41.3193 35.9768L41.4177 36.1271L41.5128 36.2774L41.6048 36.4276L41.6936 36.5776L41.779 36.7274L41.8612 36.8768L41.94 37.0259L42.0154 37.1745L42.0874 37.3225L42.1559 37.47L42.2209 37.6168L42.2824 37.7628L42.3404 37.908L42.3948 38.0523L42.4456 38.1956L42.4928 38.3378L42.5364 38.479L42.5763 38.6189L42.6126 38.7576L42.6452 38.8949L42.6741 39.0309L42.6993 39.1653L42.7209 39.2982L42.7387 39.4294L42.7529 39.5589L42.7633 39.6867L42.77 39.8127L42.7731 39.9367L42.7724 40.0587L42.7681 40.1788L42.7601 40.2967L42.7484 40.4124L42.7331 40.5259L42.7141 40.637L42.6916 40.7459L42.6654 40.8523L42.6357 40.9562L42.6024 41.0575L42.5656 41.1562L42.5253 41.2523L42.4815 41.3457L42.4343 41.4363L42.3837 41.524L42.3297 41.6089L42.2724 41.6908L42.2118 41.7698L42.1479 41.8457L42.0808 41.9185L42.0105 41.9883L41.9371 42.0548L41.8606 42.1182L41.7811 42.1783L41.6985 42.2351L41.6131 42.2886L41.5247 42.3387L41.4335 42.3854L41.3395 42.4287L41.2428 42.4686L41.1434 42.5049L41.0414 42.5378L40.9368 42.5671L40.8298 42.5929L40.7203 42.615L40.6084 42.6336L40.4942 42.6486L40.3778 42.6599L40.2592 42.6676L40.1384 42.6716L40.0157 42.6719L39.8909 42.6686L39.7642 42.6616L39.6357 42.6509L39.5054 42.6365L39.3734 42.6184L39.2398 42.5967L39.1046 42.5713L38.9679 42.5422L38.8298 42.5094L38.6903 42.4729L38.5496 42.4329L38.4077 42.3892L38.2646 42.3419L38.1205 42.2909L37.9754 42.2365L37.8294 42.1784L37.6826 42.1169L37.535 42.0518L37.3867 41.9833L37.2378 41.9113L37.0884 41.8359L36.9385 41.7572L36.7883 41.6751L36.6377 41.5897L36.4869 41.501L36.3359 41.4091L36.1847 41.3141L36.0336 41.2159L35.8825 41.1146L35.7315 41.0103L35.5807 40.903L35.4302 40.7928L35.28 40.6797L35.1301 40.5638L34.9807 40.4451L34.8319 40.3237L34.6836 40.1997L34.5359 40.0731L34.389 39.944L34.2429 39.8124L34.0976 39.6784L33.9531 39.5421L33.8097 39.4036L33.6672 39.2629L33.5259 39.1201L33.3856 38.9752L33.2466 38.8284L33.1088 38.6797L32.9722 38.5292L32.837 38.377L32.7032 38.2232L32.5709 38.0677L32.44 37.9108L32.3106 37.7525L32.1829 37.5928L32.0567 37.432L31.9322 37.2699L31.8094 37.1068L31.6883 36.9427L31.569 36.7778L31.4515 36.612L31.3359 36.4455L31.2221 36.2783L31.1102 36.1107L31.0003 35.9425L30.8923 35.774L30.7863 35.6053L30.6823 35.4363L30.5803 35.2673L30.4804 35.0982L30.3826 34.9293L30.2868 34.7605L30.1931 34.592L30.1015 34.4238L30.0121 34.2561L29.9248 34.0889L29.8396 33.9224L29.7566 33.7566L29.6757 33.5916L29.597 33.4275L29.5204 33.2643L29.446 33.1023L29.3738 32.9414L29.3037 32.7818L29.2357 32.6235L29.1699 32.4666L29.1062 32.3112L29.0446 32.1575L28.9851 32.0054L28.9277 31.855L28.8724 31.7065L28.8191 31.5599L28.7679 31.4154L28.7187 31.2729L28.6714 31.1325L28.6262 30.9944L28.5829 30.8586L28.5415 30.7252L28.502 30.5943L28.4643 30.4659L28.4285 30.34L28.3945 30.2169L28.3623 30.0965L28.3318 29.9788L28.3029 29.8641L28.2758 29.7523L28.2502 29.6434L28.2262 29.5377L28.2038 29.435L28.1828 29.3355L28.1633 29.2392L28.1452 29.1462L28.1285 29.0565L28.1131 28.9702L28.0989 28.8873L28.0859 28.8079L28.0741 28.7319L28.0635 28.6596L28.0539 28.5908L28.0452 28.5257L28.0376 28.4642L28.0309 28.4064L28.025 28.3524L28.0199 28.3021L28.0155 28.2556L28.0118 28.213L28.0087 28.1741L28.0063 28.1392L28.0043 28.1081L28.0027 28.0809L28.0016 28.0576L28.0008 28.0382L28.0003 28.0228L28 28.0114L27.9999 28.0039L27.9998 28.0003L27.9998 28.0007L27.9998 28.0051L27.9997 28.0134L27.9995 28.0257L27.999 28.0419L27.9983 28.062L27.9973 28.0861L27.996 28.1141L27.9942 28.146L27.9919 28.1818L27.989 28.2214L27.9856 28.2649L27.9814 28.3122L27.9766 28.3633L27.971 28.4181L27.9646 28.4767L27.9573 28.539L27.949 28.605L27.9398 28.6746L27.9295 28.7477L27.9181 28.8245L27.9056 28.9047L27.8919 28.9884L27.8769 29.0756L27.8606 29.1661L27.843 29.2599L27.8241 29.357L27.8037 29.4573L27.7818 29.5608L27.7584 29.6674L27.7334 29.7771L27.7069 29.8898L27.6787 30.0053L27.6488 30.1238L27.6172 30.245L27.5839 30.369L27.5488 30.4957L27.5118 30.6249L27.4731 30.7567L27.4324 30.891L27.3899 31.0276L27.3454 31.1666L27.2989 31.3077L27.2505 31.4511L27.2001 31.5965L27.1477 31.7439L27.0932 31.8933L27.0366 32.0445L26.978 32.1974L26.9173 32.352L26.8544 32.5082L26.7895 32.666L26.7224 32.8251L26.6532 32.9856L26.5819 33.1473L26.5084 33.3102L26.4328 33.4742L26.355 33.6392L26.2751 33.805L26.193 33.9717L26.1088 34.1391L26.0225 34.3071L25.934 34.4756L25.8435 34.6446L25.7508 34.814L25.656 34.9836L25.5592 35.1535L25.4602 35.3233L25.3593 35.4932L25.2563 35.663L25.1513 35.8326L25.0444 36.002L24.9354 36.1709L24.8246 36.3395L24.7118 36.5074L24.5972 36.6748L24.4807 36.8414L24.3625 37.0072L24.2424 37.1721L24.1207 37.336L23.9972 37.4989L23.872 37.6605L23.7453 37.821L23.617 37.9801L23.4871 38.1379L23.3558 38.2941L23.223 38.4487L23.0888 38.6018L22.9532 38.753L22.8164 38.9025L22.6784 39.0501L22.5391 39.1957L22.3987 39.3393L22.2572 39.4807L22.1148 39.62L21.9713 39.7571L21.8269 39.8918L21.6817 40.0241L21.5358 40.1539L21.3891 40.2813L21.2417 40.406L21.0937 40.5281L20.9452 40.6475L20.7963 40.7641L20.6469 40.8778L20.4973 40.9887L20.3473 41.0967L20.1972 41.2016L20.0469 41.3036L19.8966 41.4024L19.7463 41.4981L19.5961 41.5905L19.4461 41.6798L19.2963 41.7658L19.1468 41.8485L18.9976 41.9278L18.849 42.0038L18.7008 42.0763L18.5533 42.1454L18.4064 42.2109L18.2602 42.273L18.1149 42.3316L17.9705 42.3865L17.827 42.4379L17.6845 42.4857L17.5432 42.5299L17.4031 42.5704L17.2642 42.6072L17.1266 42.6404L16.9905 42.6699L16.8558 42.6957L16.7227 42.7179L16.5912 42.7363L16.4614 42.751L16.3333 42.762L16.2071 42.7694L16.0827 42.773L15.9604 42.7729L15.84 42.7692L15.7218 42.7617L15.6057 42.7507L15.4919 42.7359L15.3803 42.7176L15.2711 42.6956L15.1643 42.67L15.06 42.6408L14.9583 42.6081L14.8591 42.5719L14.7626 42.5321L14.6688 42.4889L14.5778 42.4422L14.4896 42.3922L14.4042 42.3387L14.3218 42.2819L14.2424 42.2218L14.166 42.1585L14.0927 42.0919L14.0224 42.0221L13.9554 41.9492L13.8915 41.8732L13.8309 41.7941L13.7736 41.7121L13.7195 41.627L13.6689 41.5391L13.6216 41.4484L13.5777 41.3548L13.5373 41.2585L13.5004 41.1596L13.467 41.058L13.4371 40.9538L13.4108 40.8471L13.3881 40.738L13.3689 40.6265L13.3534 40.5127L13.3415 40.3966L13.3332 40.2784L13.3286 40.158L13.3277 40.0355L13.3304 39.9111L13.3368 39.7847L13.347 39.6564L13.3608 39.5264L13.3782 39.3947L13.3994 39.2613L13.4243 39.1264L13.4528 38.9899L13.485 38.852L13.5208 38.7128L13.5603 38.5722L13.6034 38.4305L13.6502 38.2876L13.7005 38.1437L13.7544 37.9987L13.8119 37.8529L13.8729 37.7062L13.9374 37.5587L14.0054 37.4105L14.0768 37.2618L14.1516 37.1124L14.2299 36.9626L14.3114 36.8124L14.3963 36.6619L14.4845 36.5111L14.5758 36.3601L14.6704 36.209L14.7681 36.0578L14.8688 35.9067L14.9727 35.7557L15.0795 35.6049L15.1892 35.4543L15.3019 35.304L15.4174 35.1541L15.5356 35.0047L15.6566 34.8557L15.7802 34.7073L15.9064 34.5596L16.0351 34.4125L16.1663 34.2663L16.2999 34.1208L16.4358 33.9762L16.574 33.8326L16.7144 33.69L16.8568 33.5485L17.0014 33.4081L17.1479 33.2688L17.2963 33.1308L17.4465 32.994L17.5984 32.8586L17.752 32.7246L17.9072 32.592L18.0639 32.4609L18.222 32.3313L18.3815 32.2033L18.5421 32.0769L18.704 31.9521L18.8669 31.829L19.0309 31.7077L19.1957 31.5881L19.3614 31.4703L19.5278 31.3544L19.6948 31.2403L19.8624 31.1281L20.0305 31.0178L20.1989 30.9095L20.3676 30.8032L20.5366 30.6989L20.7056 30.5966L20.8747 30.4964L21.0436 30.3982L21.2125 30.3021L21.381 30.2081L21.5492 30.1162L21.717 30.0264L21.8843 29.9387L22.0509 29.8532L22.2169 29.7698L22.382 29.6886L22.5463 29.6096L22.7096 29.5327L22.8718 29.4579L23.0329 29.3853L23.1927 29.3149L23.3512 29.2466L23.5083 29.1804L23.6639 29.1163L23.818 29.0544L23.9703 28.9946L24.121 28.9369L24.2698 28.8812L24.4166 28.8276L24.5615 28.7761L24.7044 28.7265L24.8451 28.679L24.9835 28.6334L25.1197 28.5898L25.2535 28.5481L25.3848 28.5083L25.5137 28.4704L25.6399 28.4343L25.7635 28.4L25.8844 28.3675L26.0024 28.3367L26.1176 28.3076L26.2299 28.2802L26.3392 28.2543L26.4455 28.2301L26.5487 28.2074L26.6487 28.1863L26.7455 28.1665L26.839 28.1482L26.9293 28.1312L27.0161 28.1156L27.0995 28.1012L27.1795 28.0881L27.256 28.0761L27.3289 28.0653L27.3983 28.0555L27.464 28.0467L27.5261 28.0389L27.5844 28.032L27.6391 28.026L27.6899 28.0208L27.737 28.0163L27.7803 28.0125L27.8198 28.0094L27.8553 28.0068L27.8871 28.0047L27.9149 28.0031L27.9388 28.0019L27.9587 28.0011L27.9748 28.0005L27.9869 28.0002L27.995 28L27.9992 28L27.9994 28L27.9957 28L27.988 27.9999L27.9764 27.9997L27.9608 27.9993L27.9412 27.9986L27.9178 27.9977L27.8904 27.9964L27.8591 27.9946L27.824 27.9924L27.7849 27.9897L27.7421 27.9863L27.6954 27.9823L27.6449 27.9776L27.5906 27.9721L27.5327 27.9658L27.471 27.9586L27.4056 27.9505L27.3366 27.9415L27.264 27.9313L27.1878 27.9201L27.1081 27.9078L27.0249 27.8943L26.9383 27.8795L26.8484 27.8635L26.7551 27.8461L26.6585 27.8273L26.5587 27.8072L26.4557 27.7855L26.3495 27.7624L26.2404 27.7377L26.1282 27.7114L26.0131 27.6834L25.8951 27.6538L25.7743 27.6225L25.6507 27.5895L25.5245 27.5546L25.3956 27.518L25.2642 27.4795L25.1304 27.4392L24.9941 27.3969L24.8555 27.3528L24.7147 27.3066L24.5717 27.2585L24.4266 27.2084L24.2795 27.1563L24.1305 27.1021L23.9796 27.0459L23.8269 26.9876L23.6725 26.9272L23.5166 26.8647L23.3591 26.8001L23.2001 26.7334L23.0399 26.6646L22.8783 26.5936L22.7156 26.5204L22.5518 26.4451L22.387 26.3677L22.2213 26.2881L22.0547 26.2064L21.8874 26.1226L21.7195 26.0366L21.551 25.9484L21.3821 25.8582L21.2128 25.7659L21.0432 25.6714L20.8734 25.5749L20.7035 25.4763L20.5336 25.3757L20.3638 25.273L20.1942 25.1683L20.0248 25.0617L19.8557 24.9531L19.6872 24.8425L19.5191 24.7301L19.3516 24.6158L19.1849 24.4996L19.019 24.3816L18.8539 24.2618L18.6898 24.1403L18.5268 24.0171L18.3649 23.8923L18.2043 23.7658L18.0449 23.6377L17.887 23.5081L17.7305 23.3769L17.5756 23.2444L17.4223 23.1104L17.2708 22.9751L17.121 22.8385L16.9731 22.7006L16.8272 22.5615L16.6833 22.4213L16.5415 22.28L16.4018 22.1377L16.2644 21.9944L16.1293 21.8502L15.9966 21.7051L15.8664 21.5592L15.7387 21.4126L15.6135 21.2654L15.491 21.1175L15.3712 20.9691L15.2541 20.8202L15.1399 20.6709L15.0285 20.5213L14.9201 20.3714L14.8147 20.2213L14.7123 20.071L14.613 19.9207L14.5168 19.7704L14.4238 19.6202L14.334 19.4701L14.2475 19.3203L14.1643 19.1707L14.0844 19.0215L14.0079 18.8728L13.9348 18.7245L13.8652 18.5769L13.7991 18.4299L13.7364 18.2836L13.6773 18.1381L13.6218 17.9936L13.5698 17.8499L13.5215 17.7073L13.4767 17.5658L13.4356 17.4255L13.3982 17.2864L13.3644 17.1486L13.3343 17.0123L13.3079 16.8773L13.2852 16.744L13.2662 16.6122L13.2509 16.4821L13.2393 16.3538L13.2314 16.2272L13.2271 16.1026L13.2266 15.9799L13.2298 15.8592L13.2366 15.7406L13.2471 15.6242L13.2613 15.51L13.2791 15.3981L13.3005 15.2885L13.3255 15.1813L13.3541 15.0766L13.3863 14.9745L13.4219 14.8749L13.4611 14.778L13.5038 14.6837L13.5499 14.5923L13.5994 14.5036L13.6524 14.4178L13.7086 14.3349L13.7682 14.255L13.831 14.1781L13.8971 14.1043L13.9664 14.0336L14.0388 13.966L14.1143 13.9016L14.1929 13.8405L14.2745 13.7826L14.359 13.7281L14.4465 13.6769L14.5368 13.6291L14.6299 13.5847L14.7257 13.5437L14.8243 13.5062L14.9255 13.4723L15.0292 13.4418L15.1355 13.4149L15.2442 13.3916L15.3554 13.3719L15.4688 13.3558L15.5845 13.3433L15.7025 13.3345L15.8225 13.3293L15.9447 13.3278L16.0688 13.3299L16.1949 13.3357L16.3228 13.3453L16.4526 13.3585L16.584 13.3754L16.7171 13.3959L16.8518 13.4202L16.9881 13.4482L17.1257 13.4798L17.2648 13.515L17.4051 13.5539L17.5466 13.5965L17.6894 13.6427L17.8331 13.6924L17.9779 13.7458L18.1236 13.8027L18.2702 13.8631L18.4176 13.9271L18.5656 13.9945L18.7143 14.0654L18.8636 14.1397L19.0133 14.2174L19.1635 14.2984L19.314 14.3827L19.4647 14.4704L19.6157 14.5612L19.7668 14.6553L19.9179 14.7525L20.069 14.8528L20.22 14.9561L20.3709 15.0624L20.5215 15.1717L20.6719 15.2839L20.8218 15.3989L20.9714 15.5167L21.1204 15.6373L21.2689 15.7605L21.4168 15.8863L21.5639 16.0146L21.7103 16.1454L21.8559 16.2786L22.0006 16.4142L22.1444 16.552L22.2871 16.692L22.4289 16.8342L22.5695 16.9784L22.7089 17.1246L22.8471 17.2727L22.9841 17.4226L23.1197 17.5743L23.2539 17.7276L23.3868 17.8826L23.5181 18.039L23.648 18.1969L23.7763 18.3561L23.9029 18.5166L24.028 18.6783L24.1513 18.8411L24.2729 19.0049L24.3928 19.1696L24.5109 19.3351L24.6271 19.5014L24.7415 19.6683L24.854 19.8358L24.9645 20.0038L25.0731 20.1722L25.1798 20.3409L25.2844 20.5098L25.387 20.6788L25.4876 20.8479L25.5861 21.0169L25.6826 21.1858L25.7769 21.3544L25.8692 21.5226L25.9593 21.6905L26.0473 21.8579L26.1331 22.0246L26.2168 22.1907L26.2984 22.3559L26.3778 22.5203L26.455 22.6838L26.5301 22.8462L26.6031 23.0074L26.6739 23.1675L26.7425 23.3262L26.809 23.4836L26.8734 23.6394L26.9357 23.7937L26.9958 23.9463L27.0539 24.0973L27.1099 24.2464L27.1638 24.3936L27.2157 24.5388L27.2655 24.6819L27.3134 24.823L27.3593 24.9618L27.4032 25.0983L27.4452 25.2325L27.4853 25.3643L27.5235 25.4935L27.5599 25.6201L27.5945 25.7442L27.6273 25.8655L27.6583 25.984L27.6877 26.0996L27.7154 26.2124L27.7415 26.3222L27.7659 26.429L27.7889 26.5326L27.8103 26.6331L27.8302 26.7305L27.8488 26.8245L27.866 26.9153L27.8818 27.0027L27.8964 27.0867L27.9097 27.1672L27.9219 27.2442L27.9329 27.3177L27.9428 27.3876L27.9518 27.4539L27.9597 27.5166L27.9667 27.5755L27.9729 27.6308L27.9782 27.6823L27.9828 27.73L27.9867 27.7738L27.99 27.8139L27.9927 27.8501L27.9948 27.8824L27.9965 27.9109L27.9977 27.9354L27.9986 27.956L27.9992 27.9727L27.9996 27.9854L27.9997 27.9942L27.9998 27.999L27.9998 27.9998L27.9998 27.9967L27.9999 27.9897L28.0001 27.9787L28.0004 27.9637L28.001 27.9448L28.0019 27.922L28.0032 27.8952L28.0049 27.8645L28.007 27.83L28.0097 27.7916L28.0129 27.7493L28.0168 27.7032L28.0214 27.6534L28.0268 27.5997L28.0329 27.5423L28.04 27.4812L28.0479 27.4164L28.0568 27.348L28.0668 27.2759L28.0778 27.2003L28.09 27.1212L28.1033 27.0386L28.1178 26.9525L28.1337 26.8631L28.1508 26.7703L28.1694 26.6742L28.1893 26.5749L28.2107 26.4724L28.2336 26.3668L28.2581 26.2581L28.2841 26.1464L28.3118 26.0318L28.3411 25.9142L28.3722 25.7939L28.4049 25.6707L28.4395 25.5449L28.4758 25.4165L28.514 25.2855L28.5541 25.152L28.596 25.0161L28.6399 24.8779L28.6857 24.7374L28.7335 24.5948L28.7833 24.45L28.8351 24.3032L28.8889 24.1545L28.9448 24.0039L29.0028 23.8515L29.0628 23.6974L29.125 23.5417L29.1892 23.3844L29.2556 23.2257L29.3241 23.0656L29.3948 22.9043L29.4676 22.7418L29.5425 22.5781L29.6196 22.4135L29.6988 22.2479L29.7802 22.0815L29.8637 21.9143L29.9494 21.7465L30.0372 21.5781L30.1271 21.4092L30.2191 21.2399L30.3132 21.0704L30.4094 20.9006L30.5077 20.7307L30.608 20.5608L30.7103 20.391L30.8147 20.2213L30.921 20.0519L31.0293 19.8828L31.1395 19.7141L31.2517 19.546L31.3657 19.3784L31.4816 19.2116L31.5993 19.0455L31.7188 18.8803L31.84 18.7161L31.9629 18.5529L32.0876 18.3908L32.2138 18.2299L32.3416 18.0704L32.471 17.9122L32.6019 17.7555L32.7342 17.6003L32.868 17.4468L33.0031 17.2949L33.1395 17.1449L33.2772 16.9967L33.4161 16.8504L33.5561 16.7062L33.6972 16.5641L33.8394 16.4241L33.9825 16.2863L34.1266 16.1509L34.2716 16.0178L34.4173 15.8871L34.5638 15.759L34.7109 15.6334L34.8587 15.5105L35.007 15.3902L35.1559 15.2727L35.3051 15.1581L35.4547 15.0462L35.6045 14.9374L35.7546 14.8314L35.9048 14.7285L36.0551 14.6287L36.2054 14.5321L36.3557 14.4385L36.5058 14.3482L36.6557 14.2612L36.8053 14.1775L36.9545 14.0971L37.1034 14.02L37.2517 13.9464L37.3995 13.8762L37.5466 13.8095L37.693 13.7463L37.8386 13.6867L37.9833 13.6306L38.1271 13.578L38.2698 13.5291L38.4115 13.4838L38.5521 13.4421L38.6913 13.4041L38.8293 13.3697L38.9659 13.339L39.1011 13.3121L39.2347 13.2888L39.3667 13.2691L39.4971 13.2532L39.6257 13.241L39.7526 13.2325L39.8775 13.2277L40.0005 13.2266L40.1215 13.2292L40.2404 13.2355L40.3572 13.2454L40.4718 13.259L40.5841 13.2762L40.694 13.297L40.8016 13.3215L40.9067 13.3495L41.0092 13.3811L41.1092 13.4162L41.2066 13.4548L41.3013 13.4969L41.3932 13.5425L41.4823 13.5915L41.5685 13.6439L41.6519 13.6996L41.7323 13.7587L41.8096 13.821L41.884 13.8865L41.9552 13.9553L42.0232 14.0272L42.0881 14.1023L42.1498 14.1803L42.2082 14.2615L42.2633 14.3455L42.315 14.4325L42.3634 14.5224L42.4083 14.615L42.4498 14.7105L42.4878 14.8086L42.5224 14.9094L42.5534 15.0127L42.5808 15.1186L42.6047 15.2269L42.625 15.3377L42.6417 15.4508L42.6548 15.5661L42.6642 15.6837L42.67 15.8034L42.6721 15.9252L42.6705 16.0491L42.6652 16.1748L42.6563 16.3025L42.6437 16.4319L42.6274 16.5631L42.6074 16.696L42.5837 16.8305L42.5564 16.9664L42.5253 17.1039L42.4906 17.2427L42.4523 17.3828L42.4103 17.5242L42.3647 17.6667L42.3156 17.8103L42.2628 17.955L42.2064 18.1005L42.1466 18.247L42.0832 18.3942L42.0163 18.5422L41.946 18.6908L41.8722 18.8399L41.7951 18.9896L41.7145 19.1397L41.6307 19.2901L41.5436 19.4409L41.4533 19.5918L41.3597 19.7429L41.263 19.894L41.1632 20.0451L41.0604 20.1961L40.9545 20.347L40.8457 20.4977L40.7339 20.6481L40.6194 20.7981L40.502 20.9478L40.3819 21.0969L40.2591 21.2455L40.1337 21.3934L40.0058 21.5407L39.8754 21.6872L39.7426 21.8329L39.6074 21.9778L39.4699 22.1217L39.3302 22.2646L39.1884 22.4065L39.0445 22.5473L38.8986 22.6869L38.7508 22.8254L38.6012 22.9625L38.4498 23.0983L38.2967 23.2328L38.142 23.3659L37.9858 23.4975L37.8281 23.6276L37.6691 23.7561L37.5088 23.883L37.3473 24.0083L37.1847 24.1319L37.0211 24.2538L36.8565 24.374L36.6911 24.4924L36.525 24.6089L36.3581 24.7236L36.1907 24.8363L36.0228 24.9472L35.8544 25.0561L35.6858 25.1631L35.5169 25.2681L35.3479 25.371L35.1788 25.4719L35.0098 25.5707L34.8409 25.6675L34.6723 25.7622L34.5039 25.8548L34.336 25.9452L34.1686 26.0336L34.0017 26.1198L33.8356 26.2038L33.6701 26.2857L33.5056 26.3655L33.342 26.443L33.1794 26.5185L33.018 26.5918L32.8577 26.6629L32.6988 26.7319L32.5412 26.7987L32.3851 26.8635L32.2306 26.9261L32.0777 26.9865L31.9265 27.0449L31.7771 27.1013L31.6296 27.1555L31.484 27.2077L31.3405 27.2579L31.1991 27.3061L31.06 27.3523L30.9231 27.3965L30.7885 27.4388L30.6564 27.4792L30.5267 27.5177L30.3997 27.5544L30.2752 27.5893L30.1535 27.6223L30.0345 27.6537L29.9184 27.6833L29.8052 27.7113L29.6949 27.7376L29.5876 27.7623L29.4835 27.7855L29.3825 27.8071L29.2846 27.8273L29.19 27.8461L29.0988 27.8635L29.0108 27.8795L28.9263 27.8943L28.8452 27.9078L28.7676 27.9202L28.6935 27.9314L28.6231 27.9415L28.5562 27.9506L28.4929 27.9587L28.4334 27.9658L28.3776 27.9721L28.3255 27.9776L28.2772 27.9823L28.2327 27.9863L28.192 27.9897L28.1552 27.9924L28.1223 27.9946L28.0932 27.9964L28.0681 27.9977L28.0468 27.9986L28.0295 27.9993L28.0162 27.9997L28.0068 27.9999L28.0013 28L27.9999 28L28.0023 28L28.0088 28L28.0191 28.0002L28.0335 28.0005L28.0517 28.0011L28.074 28.0019L28.1001 28.0031L28.1301 28.0047L28.164 28.0068L28.2018 28.0094L28.2435 28.0125L28.289 28.0163L28.3382 28.0208L28.3913 28.026L28.4481 28.0321L28.5086 28.0389L28.5728 28.0467L28.6407 28.0555L28.7122 28.0653L28.7872 28.0761L28.8658 28.0881L28.9478 28.1012L29.0333 28.1156L29.1222 28.1312L29.2145 28.1482L29.31 28.1665L29.4088 28.1862L29.5108 28.2074L29.616 28.2301L29.7242 28.2543L29.8354 28.2801L29.9496 28.3075L30.0667 28.3365L30.1866 28.3673L30.3093 28.3998L30.4347 28.434L30.5627 28.4701L30.6933 28.508L30.8264 28.5477L30.9619 28.5894L31.0997 28.6329L31.2398 28.6784L31.3822 28.7259L31.5266 28.7754L31.6731 28.8268L31.8215 28.8804L31.9718 28.9359L32.1239 28.9936L32.2778 29.0533L32.4332 29.1151L32.5903 29.179L32.7487 29.2451L32.9086 29.3132L33.0697 29.3836L33.2321 29.456L33.3956 29.5306L33.5601 29.6074L33.7255 29.6862L33.8918 29.7673L34.0588 29.8505L34.2266 29.9358L34.3949 30.0232L34.5637 30.1128L34.7329 30.2045L34.9024 30.2982L35.0721 30.3941L35.242 30.492L35.4119 30.592L35.5818 30.694L35.7515 30.7981L35.9209 30.9041L36.0901 31.0121L36.2588 31.122L36.4271 31.2339L36.5947 31.3476L36.7617 31.4632L36.9279 31.5806L37.0932 31.6998L37.2576 31.8207L37.421 31.9434L37.5833 32.0678L37.7443 32.1937L37.9041 32.3213L38.0625 32.4505L38.2195 32.5811L38.3749 32.7132L38.5287 32.8467L38.6808 32.9816L38.8311 33.1179L38.9796 33.2553L39.1262 33.394L39.2708 33.5339L39.4132 33.6748L39.5536 33.8168L39.6917 33.9598L39.8275 34.1038L39.961 34.2486L40.092 34.3942L40.2206 34.5406L40.3466 34.6876L40.4699 34.8353L40.5906 34.9836L40.7085 35.1323L40.8237 35.2815L40.9359 35.431L41.0453 35.5808L41.1517 35.7309L41.2551 35.8811L41.3554 36.0314L41.4526 36.1817L41.5466 36.3319L41.6374 36.482L41.725 36.632L41.8092 36.7816L41.8902 36.931L41.9677 37.0799L42.0419 37.2283L42.1126 37.3761L42.1799 37.5233L42.2436 37.6699L42.3039 37.8156L42.3605 37.9605L42.4137 38.1044L42.4632 38.2473L42.509 38.3892L42.5513 38.5299L42.5899 38.6694L42.6248 38.8076L42.6561 38.9444L42.6837 39.0798L42.7076 39.2137L42.7278 39.346L42.7443 39.4766L42.7571 39.6055L42.7662 39.7326L42.7715 39.8579L42.7732 39.9812L42.7713 40.1025L42.7656 40.2218L42.7562 40.3389L42.7433 40.4538L42.7266 40.5665L42.7064 40.6768L42.6825 40.7848L42.655 40.8903L42.624 40.9932L42.5895 41.0936L42.5514 41.1914L42.5098 41.2865L42.4648 41.3789L42.4163 41.4684L42.3645 41.5551L42.3093 41.639L42.2508 41.7198L42.189 41.7977L42.1239 41.8725L42.0557 41.9442L41.9842 42.0128L41.9097 42.0782L41.8321 42.1404L41.7515 42.1993L41.6679 42.2549L41.5813 42.3071L41.4919 42.356L41.3997 42.4015L41.3047 42.4436L41.207 42.4822L41.1067 42.5173L41.0037 42.5488L40.8983 42.5769L40.7903 42.6013L40.6799 42.6222L40.5672 42.6395L40.4522 42.6531L40.335 42.6631L40.2156 42.6694L40.0941 42.6721L39.9706 42.6712L39.8451 42.6665L39.7178 42.6581L39.5886 42.6461L39.4577 42.6304L39.3251 42.611L39.1909 42.5879L39.0551 42.5611L38.9179 42.5307L38.7793 42.4966L38.6394 42.4588L38.4982 42.4174L38.3559 42.3724L38.2124 42.3238L38.0679 42.2716L37.9225 42.2158L37.7762 42.1565L37.6291 42.0937L37.4813 42.0273L37.3328 41.9576L37.1837 41.8843L37.0341 41.8077L36.8841 41.7278L36.7337 41.6445L36.583 41.5579L36.4321 41.468L36.281 41.375L36.1299 41.2788L35.9788 41.1795L35.8277 41.0771L35.6768 40.9717L35.5261 40.8634L35.3756 40.7521L35.2255 40.638L35.0758 40.521L34.9266 40.4014L34.778 40.279L34.6299 40.1541L34.4825 40.0265L34.3359 39.8965L34.19 39.764L34.045 39.6292L33.901 39.4921L33.7579 39.3528L33.6158 39.2113L33.4748 39.0677L33.335 38.9222L33.1964 38.7747L33.0591 38.6253L32.923 38.4742L32.7883 38.3214L32.655 38.1669L32.5232 38.0109L32.3929 37.8535L32.2641 37.6947L32.1369 37.5346L32.0113 37.3733L31.8874 37.2109L31.7653 37.0474L31.6448 36.883L31.5262 36.7177L31.4094 36.5516L31.2944 36.3849L31.1813 36.2176L31.0701 36.0497L30.9609 35.8814L30.8536 35.7128L30.7483 35.544L30.6451 35.375L30.5438 35.2059L30.4447 35.0369L30.3476 34.868L30.2525 34.6993L30.1596 34.5309L30.0688 34.3629L29.9802 34.1954L29.8936 34.0284L29.8092 33.8621L29.727 33.6966L29.6469 33.5319L29.569 33.3681L29.4932 33.2054L29.4196 33.0438L29.3481 32.8833L29.2788 32.7242L29.2116 32.5664L29.1465 32.41L29.0836 32.2552L29.0228 32.1021L28.964 31.9506L28.9074 31.8009L28.8528 31.6531L28.8003 31.5072L28.7498 31.3634L28.7013 31.2217L28.6548 31.0821L28.6102 30.9449L28.5676 30.8099L28.5269 30.6774L28.4881 30.5474L28.4511 30.4199L28.416 30.295L28.3826 30.1729L28.351 30.0534L28.3211 29.9369L28.2929 29.8232L28.2663 29.7124L28.2413 29.6047L28.2179 29.5L28.196 29.3985L28.1756 29.3002L28.1566 29.2051L28.139 29.1132L28.1227 29.0248L28.1078 28.9397L28.0941 28.8581L28.0815 28.7799L28.0701 28.7053L28.0599 28.6342L28.0506 28.5667L28.0424 28.5029L28.035 28.4428L28.0286 28.3864L28.023 28.3337L28.0182 28.2848L28.0141 28.2397L28.0106 28.1984L28.0078 28.161L28.0055 28.1274L28.0037 28.0977L28.0023 28.072L28.0013 28.0501L28.0006 28.0322L28.0002 28.0182L27.9999 28.0082L27.9998 28.0021L27.9998 28L27.9998 28.0018L27.9998 28.0076L27.9996 28.0174L27.9993 28.0311L27.9988 28.0487L27.998 28.0703L27.9969 28.0958L27.9954 28.1252L27.9934 28.1585L27.9909 28.1957L27.9878 28.2368L27.9841 28.2816L27.9798 28.3303L27.9747 28.3828L27.9688 28.439L27.962 28.4989L27.9544 28.5625L27.9458 28.6298L27.9361 28.7007L27.9255 28.7752L27.9137 28.8532L27.9007 28.9347L27.8866 29.0197L27.8711 29.108L27.8544 29.1997L27.8363 29.2948L27.8168 29.3931L27.7959 29.4945L27.7735 29.5992L27.7495 29.7069L27.724 29.8177L27.6968 29.9314L27.668 30.048L27.6375 30.1675L27.6053 30.2897L27.5713 30.4147L27.5356 30.5423L27.498 30.6725L27.4585 30.8052L27.4172 30.9403L27.3739 31.0778L27.3288 31.2175L27.2816 31.3595L27.2325 31.5036L27.1813 31.6498L27.1281 31.7979L27.0729 31.9479L27.0156 32.0998L26.9562 32.2533L26.8947 32.4085L26.8311 32.5653L26.7654 32.7236L26.6976 32.8832L26.6276 33.0441L26.5555 33.2063L26.4812 33.3696L26.4048 33.534L26.3263 33.6993L26.2456 33.8654L26.1627 34.0324L26.0778 34.2L25.9906 34.3682L25.9014 34.5369L25.8101 34.7061L25.7166 34.8756L25.6211 35.0453L25.5235 35.2151L25.4238 35.385L25.3221 35.5549L25.2184 35.7246L25.1127 35.8941L25.005 36.0633L24.8954 36.2322L24.7839 36.4005L24.6704 36.5682L24.5552 36.7353L24.438 36.9016L24.3191 37.0671L24.1984 37.2317L24.076 37.3952L23.952 37.5577L23.8262 37.7189L23.6989 37.8789L23.57 38.0375L23.4396 38.1947L23.3077 38.3504L23.1744 38.5045L23.0397 38.6569L22.9037 38.8075L22.7665 38.9563L22.6279 39.1032L22.4883 39.248L22.3475 39.3909L22.2056 39.5315L22.0628 39.67L21.919 39.8062L21.7743 39.9401L21.6289 40.0715L21.4826 40.2004L21.3356 40.3268L21.1881 40.4506L21.0399 40.5717L20.8912 40.6901L20.7421 40.8057L20.5927 40.9184L20.4429 41.0283L20.2929 41.1351L20.1427 41.239L19.9924 41.3398L19.8421 41.4375L19.6918 41.532L19.5417 41.6233L19.3917 41.7114L19.242 41.7962L19.0926 41.8777L18.9436 41.9558L18.7951 42.0305L18.6472 42.1018L18.4999 42.1696L18.3532 42.2339L18.2074 42.2947L18.0624 42.3519L17.9183 42.4056L17.7752 42.4557L17.6331 42.5021L17.4922 42.545L17.3525 42.5842L17.2141 42.6197L17.0771 42.6515L16.9414 42.6797L16.8073 42.7042L16.6748 42.725L16.5439 42.7421L16.4147 42.7554L16.2873 42.7651L16.1617 42.7711L16.0381 42.7734L15.9165 42.772L15.7969 42.7669L15.6794 42.7581L15.5641 42.7457L15.4511 42.7297L15.3404 42.71L15.2321 42.6867L15.1262 42.6598L15.0228 42.6294L14.922 42.5954L14.8238 42.5578L14.7282 42.5168L14.6355 42.4724L14.5454 42.4245L14.4583 42.3732L14.374 42.3185L14.2927 42.2605L14.2143 42.1992L14.139 42.1347L14.0668 42.0669L13.9977 41.996L13.9318 41.9219L13.8691 41.8448L13.8097 41.7647L13.7536 41.6815L13.7008 41.5955L13.6513 41.5065L13.6053 41.4147L13.5627 41.3202L13.5235 41.2229L13.4879 41.123L13.4558 41.0205L13.4272 40.9154L13.4021 40.8078L13.3807 40.6978L13.3629 40.5855L13.3486 40.4708L13.3381 40.354L13.3311 40.2349L13.3279 40.1138L13.3283 39.9906L13.3323 39.8654L13.3401 39.7384L13.3515 39.6095L13.3667 39.4788L13.3855 39.3465L13.408 39.2125L13.4342 39.077L13.464 38.94L13.4976 38.8016L13.5347 38.6619L13.5755 38.5209L13.62 38.3788L13.668 38.2355L13.7197 38.0912L13.7749 37.9459L13.8336 37.7997L13.8959 37.6527L13.9617 37.505L14.0309 37.3566L14.1036 37.2076L14.1796 37.0581L14.2591 36.9081L14.3419 36.7578L14.4279 36.6072L14.5172 36.4563L14.6098 36.3052L14.7055 36.1541L14.8043 36.003L14.9062 35.8519L15.0111 35.701L15.119 35.5502L15.2298 35.3997L15.3435 35.2496L15.46 35.0998L15.5792 34.9505L15.7011 34.8018L15.8257 34.6536L15.9528 34.5061L16.0824 34.3593L16.2145 34.2134L16.349 34.0682L16.4857 33.924L16.6247 33.7808L16.7658 33.6385L16.9091 33.4974L17.0543 33.3574L17.2015 33.2186L17.3506 33.081L17.5014 32.9447L17.654 32.8098L17.8082 32.6763L17.9639 32.5443L18.1211 32.4137L18.2797 32.2846L18.4396 32.1572L18.6008 32.0314L18.763 31.9072L18.9263 31.7848L19.0906 31.6641L19.2557 31.5451L19.4217 31.428L19.5883 31.3127L19.7556 31.1993L19.9233 31.0879L20.0916 30.9783L20.2601 30.8707L20.4289 30.7651L20.5979 30.6615L20.767 30.56L20.936 30.4605L21.1049 30.363L21.2737 30.2677L21.4421 30.1745L21.6102 30.0833L21.7778 29.9943L21.9448 29.9074L22.1112 29.8227L22.2769 29.7401L22.4417 29.6597L22.6056 29.5814L22.7686 29.5053L22.9304 29.4313L23.091 29.3595L23.2504 29.2898L23.4084 29.2223L23.565 29.1569L23.72 29.0936L23.8735 29.0325L24.0252 28.9734L24.1752 28.9164L24.3233 28.8615L24.4695 28.8087L24.6136 28.7578L24.7557 28.709L24.8956 28.6622L25.0332 28.6174L25.1685 28.5744L25.3015 28.5334L25.4319 28.4943L25.5598 28.4571L25.6851 28.4216L25.8077 28.388L25.9275 28.3561L26.0446 28.3259L26.1587 28.2974L26.2699 28.2706L26.3782 28.2454L26.4833 28.2217L26.5853 28.1996L26.6842 28.1789L26.7798 28.1597L26.8722 28.1419L26.9612 28.1254L27.0468 28.1102L27.129 28.0963L27.2077 28.0836L27.2829 28.0721L27.3545 28.0616L27.4226 28.0522L27.487 28.0438L27.5477 28.0363L27.6047 28.0297L27.658 28.024L27.7075 28.0191L27.7532 28.0148L27.7951 28.0113L27.8331 28.0084L27.8673 28.006L27.8976 28.0041L27.924 28.0027L27.9465 28.0016L27.965 28.0009L27.9796 28.0004L27.9903 28.0001L27.997 28L27.9997 28L27.9985 28L27.9934 28L27.9842 27.9998L27.9712 27.9996L27.9541 27.9991L27.9332 27.9983L27.9083 27.9973L27.8795 27.9958L27.8468 27.9939L27.8103 27.9915L27.7698 27.9885L27.7256 27.9849L27.6775 27.9807L27.6256 27.9757L27.57 27.9699L27.5107 27.9633L27.4476 27.9558L27.381 27.9474L27.3106 27.9379L27.2367 27.9274L27.1593 27.9158L27.0783 27.903L26.9939 27.8891L26.9061 27.8738L26.8149 27.8573L26.7204 27.8395L26.6226 27.8202L26.5216 27.7995L26.4175 27.7773L26.3103 27.7536L26.2 27.7283L26.0867 27.7014L25.9706 27.6729L25.8515 27.6427L25.7297 27.6107L25.6052 27.577L25.478 27.5416L25.3482 27.5043L25.2159 27.4651L25.0812 27.4241L24.9441 27.3811L24.8047 27.3363L24.663 27.2894L24.5193 27.2406L24.3734 27.1897L24.2256 27.1369L24.0759 27.082L23.9243 27.025L23.7711 26.9659L23.6161 26.9048L23.4596 26.8415L23.3015 26.7762L23.1421 26.7087L22.9814 26.639L22.8194 26.5673L22.6563 26.4934L22.4921 26.4173L22.3269 26.3391L22.1609 26.2587L21.9941 26.1762L21.8266 26.0916L21.6584 26.0048L21.4898 25.9159L21.3207 25.8249L21.1513 25.7318L20.9816 25.6366L20.8118 25.5393L20.6419 25.44L20.472 25.3386L20.3022 25.2352L20.1327 25.1299L19.9634 25.0225L19.7945 24.9132L19.6261 24.8019L19.4582 24.6888L19.291 24.5738L19.1246 24.457L18.959 24.3383L18.7943 24.2179L18.6305 24.0958L18.4679 23.972L18.3065 23.8465L18.1463 23.7195L17.9874 23.5908L17.83 23.4606L17.6741 23.329L17.5198 23.1959L17.3671 23.0614L17.2162 22.9256L17.0671 22.7886L16.9199 22.6503L16.7747 22.5108L16.6315 22.3702L16.4905 22.2285L16.3517 22.0858L16.2151 21.9421L16.0809 21.7976L15.9491 21.6522L15.8197 21.5061L15.6929 21.3593L15.5687 21.2118L15.4472 21.0637L15.3284 20.9151L15.2123 20.7661L15.0991 20.6166L14.9888 20.4669L14.8815 20.3169L14.7772 20.1668L14.6759 20.0165L14.5777 19.8662L14.4827 19.7159L14.3908 19.5657L14.3022 19.4157L14.2169 19.266L14.1349 19.1165L14.0562 18.9675L13.981 18.8189L13.9092 18.6709L13.8408 18.5234L13.7759 18.3767L13.7146 18.2307L13.6568 18.0856L13.6025 17.9413L13.5519 17.798L13.5048 17.6558L13.4614 17.5147L13.4216 17.3749L13.3855 17.2362L13.3531 17.099L13.3243 16.9631L13.2993 16.8288L13.2779 16.6959L13.2602 16.5648L13.2462 16.4353L13.236 16.3076L13.2294 16.1818L13.2265 16.0578L13.2274 15.9359L13.2319 15.8159L13.24 15.6981L13.2519 15.5825L13.2673 15.4691L13.2864 15.358L13.3092 15.2493L13.3355 15.1431L13.3654 15.0393L13.3988 14.938L13.4358 14.8394L13.4762 14.7434L13.5201 14.6502L13.5675 14.5598L13.6183 14.4721L13.6724 14.3874L13.7299 14.3056L13.7906 14.2268L13.8547 14.151L13.9219 14.0783L13.9409 14.0589Z" stroke="white" stroke-width="1.5"/>
</mask>
<g mask="url(#mask0_1831_30529)">
<rect x="39.8486" y="-14.1816" width="59.2257" height="58.8287" rx="10" transform="rotate(59.6133 39.8486 -14.1816)" fill="url(#paint0_linear_1831_30529)"/>
</g>
<defs>
<linearGradient id="paint0_linear_1831_30529" x1="86.6783" y1="-11.1034" x2="58.3814" y2="36.7767" gradientUnits="userSpaceOnUse">
<stop offset="0.385417" stop-color="#3F93DF"/>
<stop offset="0.848958" stop-color="#7709CD"/>
</linearGradient>
</defs>
</svg>
