<svg width="233" height="76" viewBox="0 0 233 76" fill="none" xmlns="http://www.w3.org/2000/svg">
<mask id="mask0_2448_21900" style="mask-type:alpha" maskUnits="userSpaceOnUse" x="23" y="12" width="48" height="48">
<path d="M66.0847 57.311C66.0847 58.4107 66.9827 59.3022 68.0905 59.3022C69.1982 59.3022 70.0962 58.4107 70.0962 57.311C70.0962 56.2112 69.1982 55.3197 68.0905 55.3197C66.9827 55.3197 66.0847 56.2112 66.0847 57.311Z" fill="white" stroke="white"/>
<path d="M66.0847 15.1624C66.0847 16.2621 66.9827 17.1536 68.0905 17.1536C69.1982 17.1536 70.0962 16.2621 70.0962 15.1624C70.0962 14.0626 69.1982 13.1711 68.0905 13.1711C66.9827 13.1711 66.0847 14.0626 66.0847 15.1624Z" fill="white" stroke="white"/>
<path d="M23.6301 15.1624C23.6301 16.2621 24.5281 17.1536 25.6359 17.1536C26.7436 17.1536 27.6416 16.2621 27.6416 15.1624C27.6416 14.0626 26.7436 13.1711 25.6359 13.1711C24.5281 13.1711 23.6301 14.0626 23.6301 15.1624Z" fill="white" stroke="white"/>
<path d="M23.6301 57.311C23.6301 58.4107 24.5281 59.3022 25.6359 59.3022C26.7436 59.3022 27.6416 58.4107 27.6416 57.311C27.6416 56.2112 26.7436 55.3197 25.6359 55.3197C24.5281 55.3197 23.6301 56.2112 23.6301 57.311Z" fill="white" stroke="white"/>
<path d="M46.999 36.0396V36.0366V36.0286L46.9986 36.0153L46.998 35.9974L46.997 35.9738L46.996 35.9456L46.994 35.9121L46.9916 35.8739L46.9886 35.8305L46.9849 35.782L46.9803 35.7286L46.9749 35.6705L46.9686 35.6071L46.9615 35.5391L46.9532 35.4664L46.9435 35.3887L46.9328 35.3064L46.9207 35.2195L46.9074 35.1276L46.8923 35.0313L46.8763 34.9307L46.8582 34.8252L46.8388 34.7157L46.8178 34.6015L46.7947 34.483L46.77 34.3606L46.7436 34.2338L46.7152 34.103L46.6844 33.968L46.652 33.8292L46.6175 33.6865L46.5808 33.5402L46.542 33.3898L46.5009 33.2358L46.4574 33.0786L46.412 32.9177L46.3638 32.7535L46.3133 32.5859L46.2605 32.4152L46.205 32.2414L46.1472 32.0646L46.087 31.8848L46.0238 31.7023L45.9583 31.5171L45.8901 31.3292L45.8193 31.1388L45.7457 30.9461L45.6695 30.751L45.5906 30.5538L45.5087 30.3544L45.4241 30.1531L45.3369 29.9499L45.247 29.745L45.1544 29.5384L45.0588 29.3303L44.9601 29.1208L44.8592 28.9099L44.7552 28.6979L44.6482 28.4848L44.5389 28.2707L44.4266 28.0558L44.3116 27.8401L44.1936 27.6239L44.0729 27.4071L43.9496 27.19L43.8239 26.9726L43.6952 26.755L43.5638 26.5374L43.4298 26.3199L43.293 26.1026L43.154 25.8856L43.0122 25.669L42.8678 25.453L42.7211 25.2376L42.572 25.023L42.4205 24.8093L42.2664 24.5966L42.1103 24.3851L41.9519 24.1747L41.7911 23.9657L41.6283 23.7582L41.4631 23.5522L41.296 23.3478L41.1272 23.1453L40.956 22.9446L40.7832 22.7459L40.6084 22.5493L40.4318 22.3548L40.2537 22.1627L40.0742 21.973L39.8926 21.7857L39.7098 21.601L39.5256 21.4191L39.3401 21.2399L39.1532 21.0635L38.9653 20.8901L38.7761 20.7198L38.5859 20.5525L38.3947 20.3885L38.2028 20.2278L38.0099 20.0705L37.8164 19.9166L37.6225 19.7663L37.4279 19.6195L37.2327 19.4765L37.0375 19.3372L36.8416 19.2017L36.6457 19.0701L36.4498 18.9425L36.2539 18.8188L36.058 18.6993L35.8624 18.5838L35.6672 18.4726L35.472 18.3655L35.2778 18.2628L35.0839 18.1644L34.8903 18.0703L34.6981 17.9807L34.5062 17.8955L34.3157 17.8149L34.1261 17.7387L33.9376 17.6671L33.7504 17.6001L33.5645 17.5378L33.3799 17.48L33.1969 17.427L33.0156 17.3786L32.836 17.3349L32.6582 17.2959L32.4823 17.2617L32.3083 17.2321L32.1365 17.2074L31.9669 17.1874L31.7995 17.1721L31.6345 17.1616L31.472 17.1558L31.312 17.1547L31.1546 17.1584L30.9999 17.1668L30.8481 17.1798L30.6991 17.1976L30.5531 17.22L30.4101 17.2471L30.2703 17.2788L30.1337 17.315L30.0004 17.3559L29.8704 17.4013L29.7439 17.4511L29.6209 17.5054L29.5015 17.5642L29.3858 17.6273L29.2738 17.6948L29.1655 17.7666L29.0612 17.8426L28.9607 17.9228L28.8643 18.0071L28.7719 18.0956L28.7472 18.1205L28.6601 18.2141L28.5771 18.3117L28.4983 18.4132L28.4238 18.5184L28.3536 18.6275L28.2878 18.7403L28.2264 18.8567L28.1694 18.9767L28.117 19.1002L28.069 19.2272L28.0257 19.3575L27.987 19.4911L27.9528 19.6279L27.9234 19.7678L27.8986 19.9108L27.8785 20.0567L27.8632 20.2055L27.8526 20.3572L27.8468 20.5115L27.8457 20.6685L27.8494 20.828L27.858 20.99L27.8713 21.1544L27.8894 21.321L27.9123 21.4899L27.94 21.6608L27.9725 21.8337L28.0098 22.0086L28.0519 22.1853L28.0987 22.3637L28.1502 22.5437L28.2065 22.7253L28.2675 22.9084L28.3332 23.0928L28.4035 23.2785L28.4784 23.4653L28.558 23.6532L28.6421 23.8421L28.7307 24.0319L28.8239 24.2224L28.9214 24.4136L29.0234 24.6055L29.1297 24.7978L29.2403 24.9906L29.3552 25.1836L29.4743 25.3769L29.5975 25.5704L29.7248 25.7638L29.8561 25.9572L29.9914 26.1505L30.1305 26.3436L30.2735 26.5363L30.4203 26.7286L30.5707 26.9204L30.7247 27.1117L30.8823 27.3023L31.0434 27.4921L31.2078 27.6811L31.3755 27.8693L31.5464 28.0564L31.7204 28.2424L31.8974 28.4273L32.0774 28.6109L32.2603 28.7933L32.4459 28.9743L32.6341 29.1538L32.8249 29.3318L33.0182 29.5083L33.2139 29.6831L33.4118 29.8561L33.612 30.0275L33.8139 30.1969L34.0182 30.3644L34.2241 30.53L34.4317 30.6936L34.6409 30.8551L34.8519 31.0145L35.0642 31.1716L35.2778 31.3266L35.4924 31.4793L35.7083 31.6297L35.925 31.7777L36.1426 31.9233L36.3609 32.0665L36.5798 32.2072L36.7995 32.3454L37.0191 32.4811L37.2394 32.6141L37.4597 32.7446L37.68 32.8725L37.8999 32.9977L38.1199 33.1202L38.3395 33.2402L38.5588 33.3573L38.7774 33.4715L38.9954 33.5833L39.2127 33.6922L39.429 33.7984L39.6443 33.9019L39.8585 34.0025L40.0712 34.1004L40.2828 34.1956L40.4927 34.2879L40.7013 34.3775L40.9079 34.4645L41.1128 34.5484L41.3157 34.6301L41.5166 34.7087L41.7152 34.7847L41.9117 34.8581L42.106 34.9288L42.2975 34.9968L42.4867 35.0622L42.6729 35.1249L42.8565 35.1853L43.0373 35.243L43.2151 35.2985L43.3896 35.3512L43.5615 35.4017L43.7296 35.4495L43.8944 35.4953L44.0559 35.5388L44.214 35.5796L44.3681 35.6187L44.5189 35.6552L44.6656 35.6901L44.8087 35.7226L44.9478 35.7531L45.0825 35.7817L45.2135 35.8082L45.3402 35.8331L45.4629 35.856L45.5809 35.8773L45.6949 35.8968L45.8042 35.9148L45.9092 35.9314L46.0098 35.9463L46.1054 35.9599L46.1967 35.9719L46.2833 35.9828L46.3648 35.9924L46.4417 36.0011L46.5139 36.0084L46.5811 36.0147L46.6436 36.0203L46.7008 36.025L46.7533 36.0286L46.8007 36.0319L46.8432 36.0342L46.8803 36.0362L46.9127 36.0376L46.9398 36.0386L46.9619 36.0392L46.9789 36.0396H46.9906H46.9973H46.999ZM46.999 36.0396V36.0376V36.0303L46.9993 36.018L46.9996 36.0004L47.0003 35.9782L47.0013 35.9506L47.0027 35.9178L47.0047 35.8803L47.0073 35.8374L47.0107 35.79L47.0144 35.7372L47.019 35.6798L47.0247 35.6174L47.0314 35.55L47.0391 35.478L47.0478 35.401L47.0575 35.3194L47.0685 35.2328L47.0812 35.1418L47.0949 35.0462L47.11 34.946L47.1267 34.8411L47.1451 34.7323L47.1651 34.6185L47.1865 34.5006L47.2099 34.3785L47.2353 34.2524L47.2624 34.122L47.2911 33.9872L47.3222 33.8488L47.3553 33.7065L47.3904 33.5604L47.4275 33.4104L47.467 33.2568L47.5088 33.0995L47.5526 32.9388L47.5987 32.7747L47.6475 32.6073L47.6986 32.4366L47.7521 32.2629L47.808 32.086L47.8665 31.9063L47.9276 31.7237L47.9911 31.5383L48.0573 31.3503L48.1262 31.1597L48.1977 30.9667L48.2719 30.7714L48.3488 30.5739L48.4284 30.3742L48.5106 30.1725L48.5955 29.9688L48.6835 29.7634L48.7741 29.5564L48.8673 29.3477L48.9636 29.1376L49.0625 28.9261L49.1642 28.7134L49.2688 28.4996L49.3761 28.2847L49.4861 28.069L49.5987 27.8525L49.7144 27.6354L49.8327 27.4177L49.9538 27.1996L50.0774 26.9811L50.2038 26.7625L50.3328 26.5438L50.4649 26.3252L50.5989 26.1067L50.736 25.8885L50.8754 25.6707L51.0175 25.4534L51.1619 25.2367L51.309 25.0207L51.4584 24.8057L51.6102 24.5915L51.7643 24.3785L51.9204 24.1666L52.0792 23.956L52.24 23.7469L52.4028 23.5392L52.5679 23.3333L52.7347 23.129L52.9039 22.9266L53.0747 22.7261L53.2475 22.5277L53.422 22.3315L53.5982 22.1375L53.776 21.9459L53.9555 21.7567L54.1367 21.5701L54.3192 21.3862L54.5031 21.205L54.688 21.0266L54.8745 20.8512L55.062 20.6788L55.2506 20.5095L55.4401 20.3434L55.6307 20.1805L55.8219 20.021L56.0141 19.865L56.2066 19.7125L56.3999 19.5635L56.5938 19.4183L56.788 19.2767L56.9825 19.139L57.1771 19.0052L57.372 18.8752L57.5669 18.7493L57.7618 18.6275L57.9563 18.5097L58.1509 18.3962L58.3448 18.2868L58.5387 18.1818L58.7319 18.0811L58.9244 17.9847L59.1163 17.8928L59.3072 17.8053L59.4974 17.7223L59.6866 17.6439L59.8745 17.57L60.0613 17.5007L60.2469 17.436L60.4311 17.376L60.6139 17.3207L60.7951 17.27L60.9746 17.2241L61.1525 17.1829L61.3283 17.1464L61.5025 17.1147L61.6743 17.0877L61.8441 17.0655L62.0116 17.0481L62.1771 17.0354L62.3399 17.0275L62.5003 17.0244L62.6581 17.0259L62.8132 17.0323L62.9657 17.0433L63.1151 17.0591L63.2618 17.0796L63.4056 17.1047L63.546 17.1345L63.6834 17.1689L63.8178 17.2079L63.9485 17.2514L64.0762 17.2995L64.2002 17.3521L64.3205 17.4092L64.4375 17.4706L64.5505 17.5364L64.6598 17.6066L64.7655 17.6811L64.8674 17.7598L64.965 17.8427L65.059 17.9297L65.1486 18.0208L65.2345 18.1159L65.3157 18.215L65.3929 18.318L65.4661 18.4248L65.5347 18.5355L65.5989 18.6498L65.6587 18.7677L65.7142 18.8893L65.7653 19.0143L65.8118 19.1428L65.8536 19.2747L65.8907 19.4098L65.9235 19.5481L65.9515 19.6895L65.9749 19.834L65.9933 19.9814L66.0074 20.1317L66.0164 20.2848L66.0211 20.4406L66.0207 20.5991L66.0157 20.7601L66.0057 20.9235L65.991 21.0893L65.9716 21.2574L65.9475 21.4276L65.9184 21.5999L65.885 21.7743L65.8462 21.9505L65.8031 22.1285L65.755 22.3083L65.7025 22.4897L65.645 22.6726L65.5828 22.857L65.5163 23.0427L65.4448 23.2296L65.3689 23.4177L65.2883 23.6069L65.2034 23.7969L65.1138 23.9879L65.0195 24.1797L64.9213 24.3721L64.8183 24.5651L64.7113 24.7586L64.6 24.9525L64.4843 25.1467L64.3647 25.341L64.2406 25.5356L64.1126 25.7301L63.9809 25.9245L63.8448 26.1188L63.7051 26.3129L63.5617 26.5066L63.4146 26.6999L63.2635 26.8927L63.1091 27.0849L62.9513 27.2764L62.7898 27.4671L62.6253 27.657L62.4572 27.8459L62.2864 28.0339L62.1122 28.2207L61.935 28.4064L61.7549 28.5909L61.572 28.774L61.3865 28.9557L61.1983 29.136L61.0074 29.3147L60.8142 29.4919L60.6189 29.6673L60.421 29.8411L60.2215 30.013L60.0196 30.1831L59.8156 30.3512L59.6101 30.5174L59.4031 30.6815L59.1942 30.8436L58.9839 31.0035L58.7723 31.1612L58.5594 31.3166L58.3451 31.4698L58.1302 31.6207L57.9142 31.7692L57.6972 31.9152L57.48 32.0588L57.2617 32.1999L57.0434 32.3385L56.8244 32.4746L56.6055 32.608L56.3862 32.7388L56.1669 32.867L55.9479 32.9926L55.7293 33.1154L55.5107 33.2355L55.2927 33.353L55.0754 33.4675L54.8588 33.5797L54.6432 33.6889L54.4282 33.7951L54.2146 33.8989L54.002 33.9998L53.7907 34.0977L53.5808 34.1933L53.3725 34.2856L53.166 34.3755L52.9607 34.4625L52.7578 34.5468L52.5565 34.6284L52.3576 34.7074L52.1607 34.7834L51.9662 34.8567L51.774 34.9278L51.5844 34.9958L51.3976 35.0612L51.213 35.1242L51.0315 35.1846L50.853 35.2424L50.6775 35.2978L50.505 35.3506L50.3359 35.401L50.1697 35.4491L50.0072 35.4949L49.8481 35.5384L49.6927 35.5796L49.5406 35.6184L49.3925 35.6552L49.2481 35.6898L49.1077 35.7223L48.9713 35.7528L48.8386 35.7814L48.7105 35.8082L48.5862 35.8331L48.4662 35.856L48.3508 35.8773L48.2395 35.8968L48.1329 35.9148L48.0306 35.9314L47.9326 35.9463L47.8397 35.9599L47.7515 35.9719L47.6676 35.9828L47.5887 35.9924L47.5144 36.0011L47.4452 36.0084L47.3807 36.0147L47.3212 36.0203L47.2667 36.025L47.2173 36.0286L47.1728 36.0319L47.1334 36.0342L47.0989 36.0362L47.0695 36.0376L47.0451 36.0386L47.026 36.0392L47.012 36.0396H47.003H46.999ZM46.999 36.0396H47.0006M46.999 36.0396V36.0445L46.9993 36.0542L46.9996 36.0691L47.0003 36.089L47.0013 36.1139L47.003 36.1438L47.005 36.1786L47.0073 36.2188L47.0107 36.2639L47.0147 36.3137L47.0194 36.3688L47.025 36.4285L47.0317 36.4932L47.0394 36.5629L47.0481 36.6373L47.0581 36.7163L47.0692 36.8002L47.0815 36.8885L47.0956 36.9818L47.1106 37.0793L47.1277 37.1815L47.1461 37.2884L47.1658 37.3996L47.1875 37.5151L47.2112 37.6346L47.2363 37.7587L47.2634 37.8868L47.2925 38.0189L47.3236 38.1549L47.357 38.295L47.3921 38.439L47.4295 38.5867L47.469 38.7381L47.5108 38.893L47.5549 39.0517L47.6014 39.2136L47.6502 39.3789L47.7013 39.5475L47.7551 39.7191L47.8113 39.894L47.8698 40.0715L47.931 40.2524L47.9948 40.4356L48.0613 40.6218L48.1302 40.8103L48.2021 41.0015L48.2766 41.1949L48.3535 41.3908L48.4334 41.5889L48.516 41.7887L48.6016 41.9908L48.6895 42.1946L48.7804 42.4L48.874 42.6071L48.9706 42.8155L49.0699 43.0256L49.1719 43.2367L49.2768 43.4491L49.3845 43.6625L49.4948 43.8768L49.6081 44.0922L49.7241 44.308L49.8428 44.5243L49.9641 44.7414L50.0881 44.9584L50.2152 45.1761L50.3445 45.3935L50.4769 45.6112L50.6116 45.8286L50.749 46.046L50.8891 46.2627L51.0318 46.4791L51.1766 46.6948L51.3243 46.9102L51.4741 47.1243L51.6265 47.3377L51.7813 47.5501L51.9381 47.7615L52.0972 47.9712L52.2587 48.18L52.4225 48.3871L52.588 48.5925L52.7558 48.7963L52.9253 48.9981L53.0971 49.1982L53.2706 49.3963L53.4458 49.5921L53.6226 49.7859L53.8014 49.9774L53.9816 50.1663L54.1635 50.3528L54.3467 50.5366L54.5315 50.7175L54.7174 50.8961L54.9046 51.0713L55.0931 51.2439L55.2827 51.4131L55.4732 51.5794L55.6644 51.7424L55.8566 51.902L56.0499 52.0583L56.2434 52.211L56.4376 52.36L56.6325 52.5057L56.8278 52.6477L57.023 52.7858L57.2189 52.9199L57.4148 53.0503L57.6107 53.1767L57.8066 53.2989L58.0025 53.4173L58.198 53.5315L58.3932 53.6414L58.5881 53.7469L58.7824 53.8484L58.9759 53.9454L59.1691 54.0379L59.3613 54.1262L59.5526 54.2099L59.7431 54.2892L59.9323 54.3639L60.1205 54.4339L60.3074 54.4996L60.4926 54.5603L60.6768 54.6167L60.8593 54.6682L61.0398 54.715L61.219 54.7575L61.3962 54.7946L61.5717 54.8275L61.7448 54.8554L61.916 54.8789L62.0848 54.8972L62.2516 54.9111L62.4157 54.9201L62.5775 54.9244L62.7367 54.9241L62.8931 54.9188L63.0469 54.9088L63.198 54.8942L63.3461 54.8749L63.4908 54.851L63.6329 54.8225L63.7716 54.7893L63.9074 54.7518L64.0394 54.7093L64.1684 54.6625L64.2938 54.6114L64.4158 54.5557L64.5338 54.4953L64.6485 54.4309L64.7595 54.3622L64.8664 54.2888L64.9694 54.2115L65.0687 54.1302L65.1636 54.0443L65.2549 53.9546L65.3418 53.8607L65.4247 53.7632L65.5033 53.6616L65.5775 53.5561L65.6477 53.4469L65.7132 53.334L65.7744 53.2172L65.8312 53.0971L65.8833 52.9736L65.9311 52.8465L65.9743 52.7161L66.0127 52.5823L66.0468 52.4453L66.0759 52.3052L66.1006 52.1622L66.1203 52.0161L66.1354 51.8671L66.1458 51.7155L66.1514 51.5608L66.1524 51.4038L66.1484 51.2442L66.1397 51.0819L66.126 50.9176L66.108 50.7507L66.0846 50.5818L66.0568 50.4109L66.0241 50.2379L65.9866 50.0627L65.9442 49.8862L65.8974 49.7076L65.8456 49.5274L65.7891 49.3459L65.7279 49.1627L65.662 48.9781L65.5915 48.7926L65.5163 48.6058L65.4364 48.4176L65.3522 48.2288L65.2632 48.0389L65.17 47.8484L65.0724 47.6573L64.9701 47.4651L64.8638 47.273L64.7528 47.0801L64.6378 46.887L64.5184 46.6938L64.3951 46.5003L64.2677 46.3069L64.136 46.1134L64.0006 45.9202L63.8612 45.7271L63.7181 45.5346L63.5714 45.3421L63.4206 45.1503L63.2665 44.9591L63.1087 44.7686L62.9476 44.5788L62.7831 44.3896L62.6153 44.2018L62.4442 44.0146L62.27 43.8287L62.0928 43.6439L61.9126 43.4603L61.7298 43.2778L61.5439 43.0969L61.3557 42.9174L61.1648 42.7395L60.9713 42.5633L60.7754 42.3884L60.5775 42.2155L60.3773 42.0442L60.175 41.875L59.9708 41.7074L59.7648 41.5421L59.5572 41.3785L59.3476 41.2172L59.1367 41.0579L58.9244 40.9006L58.7108 40.7459L58.4962 40.5932L58.2802 40.4429L58.0636 40.2949L57.8457 40.1495L57.6274 40.0065L57.4084 39.8658L57.1891 39.7277L56.9692 39.5923L56.7492 39.4592L56.5289 39.3288L56.3086 39.201L56.0883 39.0762L55.8683 38.9538L55.6487 38.834L55.4294 38.7168L55.2108 38.6026L54.9928 38.4911L54.7759 38.3823L54.5596 38.2761L54.3443 38.1729L54.1304 38.0723L53.9174 37.9747L53.7062 37.8795L53.4962 37.7872L53.288 37.6979L53.081 37.611L52.8765 37.527L52.6735 37.4457L52.4726 37.3671L52.2741 37.2914L52.0778 37.2181L51.8836 37.1474L51.6921 37.0797L51.5032 37.0143L51.317 36.9516L51.1335 36.8915L50.953 36.8337L50.7751 36.7786L50.6006 36.7259L50.4295 36.6754L50.2613 36.6276L50.0965 36.5822L49.935 36.5387L49.7773 36.4979L49.6231 36.459L49.4727 36.4222L49.326 36.3877L49.1832 36.3555L49.0445 36.325L48.9098 36.2964L48.7787 36.2699L48.6524 36.2453L48.53 36.2224L48.412 36.2012L48.2984 36.1816L48.189 36.1637L48.0844 36.1474L47.9841 36.1325L47.8885 36.1189L47.7976 36.1069L47.7113 36.096L47.6298 36.0863L47.5529 36.0781L47.481 36.0707L47.4142 36.0641L47.352 36.0588L47.2948 36.0542L47.2427 36.0505L47.1955 36.0475L47.1534 36.0449L47.1163 36.0432L47.0842 36.0419L47.0571 36.0409L47.0354 36.0402L47.0187 36.0399L47.007 36.0396H47.0006M46.999 36.0396V36.0405V36.0462V36.0568L46.9986 36.0727L46.998 36.0936L46.9973 36.1195L46.996 36.1504L46.994 36.1866L46.9916 36.2277L46.9886 36.2735L46.9849 36.3246L46.9806 36.3807L46.9752 36.4415L46.9689 36.5072L46.9619 36.5779L46.9535 36.6532L46.9438 36.7335L46.9331 36.8185L46.9211 36.9077L46.908 37.002L46.893 37.1009L46.877 37.2041L46.8592 37.312L46.8399 37.4241L46.8188 37.5406L46.7957 37.6614L46.7713 37.7862L46.7449 37.9153L46.7165 38.0487L46.6861 38.1858L46.6536 38.3272L46.6192 38.4719L46.5828 38.6209L46.544 38.7732L46.5029 38.9292L46.4598 39.0888L46.4143 39.2518L46.3665 39.4184L46.316 39.588L46.2635 39.7606L46.2084 39.9365L46.1505 40.1153L46.0904 40.2972L46.0275 40.4817L45.9623 40.6689L45.8941 40.8584L45.8236 41.0509L45.7504 41.2454L45.6742 41.4422L45.5956 41.6413L45.5141 41.8424L45.4298 42.0452L45.3429 42.2503L45.2533 42.4567L45.1607 42.6648L45.0654 42.8746L44.9675 43.0857L44.8665 43.2981L44.7629 43.5114L44.6566 43.7258L44.5473 43.9416L44.4356 44.1576L44.321 44.3747L44.2033 44.592L44.0833 44.8101L43.9603 45.0285L43.8349 45.2472L43.7066 45.4659L43.5755 45.6846L43.4421 45.903L43.3061 46.1213L43.1673 46.3394L43.0263 46.5568L42.8825 46.7735L42.7361 46.9899L42.5877 47.2052L42.4366 47.4196L42.2835 47.633L42.1277 47.8454L41.9699 48.0562L41.8098 48.2659L41.6473 48.474L41.4832 48.6804L41.3167 48.8855L41.1486 49.0883L40.9781 49.2894L40.8059 49.4886L40.6321 49.6854L40.4563 49.8802L40.2787 50.0727L40.0999 50.2625L39.9194 50.45L39.7372 50.6349L39.554 50.8167L39.3691 50.9963L39.1833 51.1725L38.9961 51.3458L38.8079 51.5163L38.6187 51.6833L38.4285 51.8472L38.2372 52.0078L38.0454 52.1648L37.8528 52.3185L37.6599 52.4688L37.466 52.6152L37.2721 52.7579L37.0776 52.897L36.883 53.032L36.6881 53.1631L36.4932 53.2902L36.2987 53.4134L36.1038 53.5325L35.9092 53.6473L35.715 53.7582L35.5211 53.8644L35.3279 53.9666L35.135 54.0645L34.9431 54.1578L34.7516 54.2467L34.5614 54.331L34.3718 54.411L34.1833 54.4863L33.9961 54.557L33.8102 54.623L33.6254 54.6848L33.4422 54.7415L33.2606 54.7936L33.0805 54.8411L32.9022 54.8839L32.7256 54.9217L32.551 54.9549L32.3784 54.9835L32.208 55.0074L32.0396 55.0263L31.8736 55.0402L31.71 55.0498L31.5488 55.0545H31.3901L31.2341 55.0495L31.0808 55.0399L30.9303 55.0256L30.7827 55.0067L30.6381 54.9831L30.4965 54.9549L30.3581 54.9217L30.2228 54.8842L30.0909 54.8421L29.9623 54.7956L29.8372 54.7445L29.7156 54.6888L29.5976 54.6287L29.4833 54.5643L29.3726 54.4956L29.2658 54.4223L29.1628 54.3449L29.0637 54.2633L28.9686 54.1777L28.8776 54.0881L28.7906 53.9941L28.7079 53.8962L28.6293 53.7944L28.5549 53.6888L28.4849 53.5793L28.4192 53.4665L28.3579 53.3496L28.3011 53.2292L28.2487 53.105L28.2008 52.9776L28.1575 52.8468L28.1188 52.7128L28.0846 52.5757L28.0551 52.4353L28.0303 52.2916L28.0102 52.1452L27.9947 51.9959L27.984 51.8436L27.9781 51.6886L27.9768 51.5309L27.9804 51.3706L27.9887 51.208L28.0019 51.0431L28.0197 50.8758L28.0424 50.7062L28.0698 50.5343L28.1021 50.3607L28.139 50.1852L28.1808 50.0076L28.2273 49.8284L28.2784 49.6475L28.3344 49.465L28.395 49.2811L28.4602 49.096L28.5301 48.9094L28.6046 48.7216L28.6837 48.5328L28.7673 48.3429L28.8555 48.1524L28.9481 47.9606L29.0451 47.7684L29.1465 47.5756L29.2523 47.3825L29.3623 47.1887L29.4766 46.9945L29.595 46.8L29.7176 46.6055L29.8443 46.4111L29.975 46.2166L30.1095 46.0224L30.248 45.8283L30.3904 45.6345L30.5364 45.441L30.6861 45.2478L30.8394 45.0557L30.9962 44.8639L31.1565 44.6727L31.3201 44.4825L31.487 44.2934L31.6571 44.1052L31.8303 43.918L32.0065 43.7318L32.1857 43.547L32.3676 43.3634L32.5524 43.1812L32.7397 43.0007L32.9297 42.8211L33.1221 42.6436L33.3168 42.4677L33.5137 42.2935L33.713 42.1209L33.9142 41.9503L34.1174 41.7814L34.3224 41.6148L34.529 41.4498L34.7372 41.2872L34.9472 41.1266L35.1584 40.9679L35.371 40.812L35.5846 40.658L35.7996 40.5063L36.0152 40.3573L36.2318 40.2103L36.4491 40.0659L36.6671 39.9242L36.8854 39.7845L37.104 39.6477L37.323 39.5136L37.5422 39.3819L37.7615 39.2528L37.9805 39.1263L38.1995 39.0026L38.4178 38.8818L38.636 38.7633L38.8537 38.6478L39.0703 38.5349L39.2866 38.4251L39.5015 38.3176L39.7158 38.213L39.9287 38.1115L40.1403 38.0122L40.3506 37.9163L40.5595 37.8227L40.7668 37.7321L40.9721 37.6442L41.176 37.5589L41.3776 37.4766L41.5775 37.3969L41.775 37.3199L41.9703 37.2456L42.1631 37.1739L42.3537 37.1049L42.5416 37.0385L42.7267 36.9748L42.9089 36.9137L43.0885 36.855L43.265 36.7989L43.4385 36.7451L43.6089 36.694L43.7758 36.6452L43.9395 36.5988L44.0997 36.5546L44.2565 36.5125L44.4096 36.473L44.559 36.4355L44.7044 36.4003L44.8461 36.3671L44.9839 36.3359L45.1176 36.3067L45.2473 36.2795L45.373 36.2539L45.494 36.2304L45.611 36.2085L45.7237 36.1886L45.832 36.17L45.9356 36.1531L46.0349 36.1378L46.1291 36.1235L46.2191 36.1109L46.3043 36.0996L46.3849 36.0897L46.4604 36.081L46.5313 36.0731L46.5975 36.0664L46.6583 36.0608L46.7145 36.0558L46.7656 36.0518L46.8118 36.0485L46.8529 36.0459L46.889 36.0435L46.9201 36.0422L46.9458 36.0412L46.9665 36.0402L46.9823 36.0399L46.993 36.0396H46.9983H46.9936H46.9839L46.9686 36.0392L46.9485 36.0389L46.9231 36.0379L46.8927 36.0366L46.8572 36.0349L46.8168 36.0329L46.771 36.0299L46.7205 36.0263L46.665 36.022L46.6045 36.017L46.539 36.0107L46.4685 36.0037L46.3932 35.9957L46.3133 35.9865L46.2288 35.9762L46.1392 35.9642L46.0449 35.9513L45.9463 35.937L45.843 35.9211L45.735 35.9035L45.623 35.8846L45.5064 35.864L45.3854 35.8414L45.26 35.8175L45.1306 35.7913L44.9972 35.7634L44.8595 35.7339L44.7181 35.702L44.5727 35.6682L44.4233 35.6323L44.2702 35.5942L44.1137 35.5537L43.9536 35.5112L43.7898 35.4664L43.6226 35.4193L43.4525 35.3698L43.279 35.3177L43.1022 35.2633L42.9226 35.2065L42.7401 35.1471L42.5546 35.0854L42.3664 35.0207L42.1758 34.9536L41.9826 34.884L41.7867 34.8116L41.5888 34.7366L41.3889 34.6589L41.1867 34.5783L40.9824 34.4953L40.7765 34.4094L40.5686 34.3208L40.359 34.2295L40.148 34.1352L39.9358 34.0383L39.7222 33.9388L39.5072 33.8362L39.2913 33.731L39.0743 33.6232L38.8567 33.5123L38.6384 33.3991L38.4194 33.283L38.1998 33.164L37.9798 33.0425L37.7599 32.9182L37.5396 32.7913L37.3193 32.6618L37.099 32.5296L36.879 32.3949L36.6594 32.2576L36.4404 32.1179L36.2218 31.9756L36.0038 31.8308L35.7869 31.6837L35.5706 31.5341L35.3557 31.3823L35.1417 31.2282L34.9288 31.0718L34.7175 30.9132L34.5076 30.7524L34.2993 30.5896L34.0927 30.4248L33.8878 30.2579L33.6852 30.0892L33.4843 29.9185L33.2855 29.7461L33.089 29.5719L32.8948 29.3961L32.7031 29.2186L32.5139 29.0396L32.3273 28.8591L32.1435 28.6773L31.9624 28.4941L31.7843 28.3096L31.6092 28.124L31.4371 27.9373L31.2683 27.7495L31.1027 27.5608L30.9404 27.3713L30.7815 27.181L30.6262 26.9899L30.4745 26.7983L30.3264 26.6062L30.182 26.4136L30.0414 26.2206L29.9047 26.0274L29.772 25.834L29.6432 25.6406L29.5185 25.4471L29.3979 25.2538L29.2815 25.0606L29.1694 24.8677L29.0615 24.6752L28.9579 24.4832L28.8588 24.2917L28.764 24.1009L28.6738 23.9109L28.588 23.7216L28.5068 23.5334L28.4302 23.3462L28.3582 23.16L28.2908 22.9752L28.2281 22.7916L28.1701 22.6095L28.1168 22.4289L28.0683 22.2498L28.0245 22.0725L27.9855 21.897L27.9512 21.7233L27.9218 21.5517L27.8972 21.382L27.8773 21.2146L27.8623 21.0494L27.852 20.8865L27.8465 20.7261L27.8458 20.5682L27.8499 20.4129L27.8588 20.2603L27.8724 20.1104L27.8908 19.9634L27.9139 19.8193L27.9416 19.6783L27.974 19.5404L28.0111 19.4056L28.0528 19.2741L28.0991 19.1459L28.1499 19.0212L28.2052 18.8999L28.265 18.7821L28.3292 18.668L28.3978 18.5576L28.4707 18.4509L28.548 18.3481L28.6294 18.2491L28.7151 18.1541L28.8049 18.063L28.8988 17.9761L28.9967 17.8932L29.0986 17.8145L29.2044 17.74L29.314 17.6698L29.4274 17.6039L29.5444 17.5424L29.6651 17.4852L29.7894 17.4325L29.9172 17.3843L30.0484 17.3405L30.1829 17.3013L30.3207 17.2667L30.4617 17.2367L30.6057 17.2113L30.7528 17.1906L30.9029 17.1745L31.0557 17.1632L31.2114 17.1565L31.3697 17.1545L31.5307 17.1573L31.6941 17.1648L31.86 17.1771L32.0282 17.1941L32.1987 17.2158L32.3713 17.2423L32.5459 17.2736L32.7225 17.3095L32.901 17.3502L33.0812 17.3956L33.2632 17.4457L33.4465 17.5004L33.6317 17.5599L33.8183 17.6239L34.0058 17.6926L34.1947 17.7658L34.3849 17.8436L34.5758 17.9259L34.7676 18.0127L34.9605 18.104L35.1541 18.1996L35.3483 18.2996L35.5429 18.4039L35.7381 18.5125L35.9333 18.6252L36.1292 18.7422L36.3251 18.8632L36.521 18.9883L36.7169 19.1174L36.9128 19.2505L37.1083 19.3873L37.3036 19.528L37.4985 19.6724L37.693 19.8204L37.8869 19.9721L38.0801 20.1272L38.2727 20.2858L38.4642 20.4477L38.6551 20.6129L38.845 20.7812L39.0335 20.9527L39.221 21.1272L39.4076 21.3046L39.5928 21.4848L39.7763 21.6678L39.9588 21.8534L40.1393 22.0415L40.3185 22.2322L40.4964 22.4252L40.6722 22.6204L40.846 22.8177L41.0182 23.0172L41.1887 23.2186L41.3568 23.4218L41.5233 23.6267L41.6874 23.8333L41.8496 24.0414L42.0097 24.2509L42.1671 24.4617L42.3226 24.6737L42.4757 24.8868L42.6265 25.1008L42.7746 25.3157L42.9206 25.5313L43.0637 25.7475L43.2048 25.9643L43.3428 26.1814L43.4786 26.3988L43.6116 26.6164L43.742 26.834L43.8697 27.0515L43.9947 27.2688L44.1171 27.4858L44.2367 27.7025L44.3534 27.9185L44.4677 28.1339L44.579 28.3485L44.6874 28.5622L44.7933 28.775L44.8963 28.9866L44.9962 29.197L45.0935 29.406L45.1881 29.6136L45.2801 29.8196L45.369 30.0239L45.4552 30.2264L45.5388 30.427L45.6194 30.6256L45.6972 30.8221L45.7728 31.0163L45.8453 31.2082L45.9152 31.3977L45.9824 31.5846L46.0472 31.7689L46.1091 31.9504L46.1686 32.1291L46.2254 32.3048L46.2799 32.4775L46.3321 32.6471L46.3815 32.8134L46.4287 32.9765L46.4735 33.1361L46.5159 33.2923L46.5564 33.4446L46.5945 33.5936L46.6303 33.7386L46.664 33.88L46.6958 34.0174L46.7255 34.1508L46.7533 34.2803L46.7793 34.4057L46.8034 34.5265L46.8255 34.6433L46.8462 34.7559L46.8649 34.864L46.8823 34.9676L46.898 35.0668L46.9124 35.1614L46.9251 35.2513L46.9368 35.337L46.9472 35.4173L46.9562 35.4933L46.9642 35.5643L46.9712 35.6307L46.9769 35.6921L46.9823 35.7485L46.9863 35.8003L46.9899 35.8467L46.9926 35.8882L46.9946 35.9251L46.9963 35.9566L46.9976 35.9831L46.9983 36.0044L46.9986 36.021L46.999 36.0323V36.0382V36.0396ZM46.999 36.0396V36.0356L46.9993 36.0263V36.0123L47 35.9928L47.0006 35.9685L47.002 35.9393L47.0033 35.9048L47.0057 35.8653L47.0083 35.8208L47.012 35.7714L47.016 35.717L47.021 35.6576L47.0271 35.5935L47.0341 35.5245L47.0421 35.4505L47.0511 35.3718L47.0615 35.2885L47.0728 35.2006L47.0859 35.1076L47.1003 35.0104L47.116 34.9085L47.1334 34.8023L47.1521 34.6915L47.1728 34.5763L47.1949 34.4568L47.2189 34.3334L47.2447 34.2053L47.2724 34.0735L47.3022 33.9374L47.3339 33.7977L47.3677 33.6537L47.4035 33.5063L47.4416 33.355L47.4817 33.2L47.5245 33.0416L47.5693 32.8796L47.6161 32.7143L47.6659 32.5457L47.7177 32.3739L47.7722 32.199L47.829 32.0211L47.8882 31.8403L47.9504 31.6567L48.0149 31.4704L48.0821 31.2814L48.1516 31.09L48.2241 30.8961L48.2994 30.7L48.3773 30.5016L48.4578 30.3012L48.541 30.0988L48.6273 29.8945L48.7159 29.6885L48.8075 29.4808L48.9021 29.2716L48.999 29.061L49.099 28.8491L49.2019 28.6359L49.3072 28.4217L49.4156 28.2065L49.5265 27.9905L49.6405 27.7738L49.7572 27.5564L49.8762 27.3386L49.9982 27.1203L50.1229 26.9018L50.2506 26.6832L50.3806 26.4645L50.5134 26.2459L50.6484 26.0275L50.7865 25.8094L50.9269 25.5917L51.0696 25.3747L51.215 25.1582L51.3628 24.9426L51.5132 24.7278L51.6657 24.5141L51.8208 24.3014L51.9779 24.09L52.1373 23.88L52.2988 23.6713L52.4626 23.4643L52.6281 23.2589L52.7959 23.0553L52.9657 22.8536L53.1372 22.6539L53.3107 22.4563L53.4859 22.2608L53.6627 22.0677L53.8412 21.877L54.0211 21.6887L54.2026 21.5031L54.3858 21.3201L54.57 21.1399L54.7555 20.9626L54.9424 20.7882L55.1302 20.617L55.3191 20.4488L55.5093 20.2839L55.6999 20.1222L55.8914 19.964L56.084 19.8092L56.2769 19.658L56.4704 19.5104L56.6643 19.3665L56.8585 19.2263L57.0531 19.09L57.248 18.9575L57.4425 18.8291L57.6374 18.7046L57.8323 18.5843L58.0269 18.4681L58.2214 18.356L58.4153 18.2482L58.6089 18.1447L58.8017 18.0456L58.994 17.9508L59.1855 17.8605L59.3764 17.7747L59.5663 17.6933L59.7548 17.6165L59.9423 17.5443L60.1289 17.4767L60.3141 17.4137L60.4976 17.3554L60.6798 17.3017L60.8606 17.2528L61.0395 17.2086L61.2167 17.1691L61.3918 17.1343L61.565 17.1043L61.7361 17.0791L61.9053 17.0586L62.0718 17.0429L62.2362 17.032L62.3984 17.0258L62.5578 17.0244L62.7146 17.0277L62.8687 17.0358L63.0201 17.0485L63.1689 17.066L63.3143 17.0881L63.4571 17.115L63.5965 17.1464L63.7325 17.1825L63.8656 17.2231L63.9953 17.2683L64.1216 17.3181L64.2443 17.3723L64.3633 17.4309L64.479 17.494L64.5906 17.5614L64.6986 17.6331L64.8029 17.7091L64.9032 17.7894L64.9998 17.8738L65.0921 17.9623L65.1803 18.0549L65.2642 18.1514L65.3445 18.2519L65.42 18.3563L65.4916 18.4646L65.5584 18.5765L65.6213 18.6922L65.6794 18.8114L65.7332 18.9343L65.7827 19.0606L65.8275 19.1903L65.8676 19.3233L65.9031 19.4596L65.9341 19.599L65.9606 19.7416L65.982 19.8871L65.999 20.0356L66.0114 20.1869L66.0187 20.3411L66.0214 20.4979L66.0194 20.6572L66.0127 20.8191L66.001 20.9834L65.9846 21.15L65.9636 21.3189L65.9375 21.4899L65.9067 21.663L65.8713 21.838L65.8312 22.0149L65.7864 22.1936L65.7366 22.374L65.6821 22.5559L65.6229 22.7394L65.5591 22.9242L65.4909 23.1104L65.4177 23.2977L65.3401 23.4862L65.2579 23.6757L65.1713 23.8662L65.08 24.0574L64.9844 24.2494L64.8845 24.4421L64.7802 24.6353L64.6712 24.8289L64.5585 25.0229L64.4412 25.2172L64.3199 25.4116L64.1945 25.6061L64.0651 25.8007L63.9318 25.9951L63.7947 26.1893L63.6536 26.3832L63.5085 26.5768L63.3601 26.7699L63.208 26.9625L63.0522 27.1545L62.8931 27.3457L62.7307 27.5361L62.5648 27.7257L62.3957 27.9143L62.2235 28.1018L62.048 28.2883L61.8699 28.4735L61.6887 28.6575L61.5048 28.8401L61.3183 29.0213L61.1294 29.201L60.9375 29.3792L60.7436 29.5558L60.5474 29.7306L60.3488 29.9037L60.1483 30.0749L59.9457 30.2443L59.7414 30.4117L59.5352 30.5772L59.3272 30.7406L59.118 30.9019L58.907 31.061L58.6951 31.2179L58.4818 31.3725L58.2672 31.5249L58.0519 31.6748L57.8356 31.8224L57.6184 31.9676L57.4007 32.1103L57.1824 32.2505L56.9638 32.3882L56.7449 32.5233L56.5259 32.6558L56.3066 32.7857L56.0873 32.9129L55.8683 33.0375L55.6497 33.1593L55.4314 33.2783L55.2138 33.3948L54.9969 33.5087L54.7806 33.6195L54.565 33.7277L54.3507 33.8332L54.1374 33.9358L53.9251 34.0357L53.7145 34.1329L53.5049 34.2272L53.2973 34.3188L53.0911 34.4074L52.8868 34.4933L52.6846 34.5766L52.4843 34.6573L52.2861 34.7353L52.0899 34.8103L51.8963 34.883L51.7051 34.9527L51.5162 35.02L51.3304 35.0844L51.1468 35.1465L50.9667 35.2059L50.7891 35.263L50.6146 35.3174L50.4432 35.3692L50.2753 35.4189L50.1105 35.4661L49.9491 35.5109L49.7913 35.5537L49.6372 35.5938L49.4864 35.632L49.3397 35.6679L49.1966 35.702L49.0575 35.7336L48.9225 35.7634L48.7918 35.7913L48.6647 35.8175L48.5421 35.8414L48.4237 35.864L48.3097 35.8846L48.2004 35.9035L48.0951 35.9211L47.9945 35.937L47.8985 35.9513L47.8069 35.9642L47.7204 35.9762L47.6385 35.9865L47.5612 35.9957L47.4887 36.0037L47.4212 36.0107L47.3587 36.017L47.3008 36.022L47.2484 36.0263L47.2005 36.0299L47.1578 36.0329L47.1203 36.0349L47.0876 36.0366L47.0601 36.0379L47.0377 36.0389L47.0204 36.0392L47.008 36.0396H47.0006M46.999 36.0396H47.0023H47.0107L47.024 36.0399L47.0428 36.0402L47.0665 36.0412L47.0952 36.0422L47.129 36.0435L47.1681 36.0459L47.2119 36.0485L47.2611 36.0518L47.3149 36.0558L47.374 36.0608L47.4379 36.0664L47.5068 36.0731L47.5803 36.081L47.6589 36.0897L47.7421 36.1L47.83 36.1112L47.9226 36.1235L48.0199 36.1378L48.1219 36.1531L48.2282 36.17L48.3391 36.1886L48.4541 36.2085L48.5738 36.2304L48.6978 36.2539L48.8259 36.2795L48.9582 36.3067L49.0943 36.3359L49.2347 36.3668L49.3788 36.4L49.5269 36.4355L49.6786 36.4727L49.8341 36.5125L49.9932 36.5543L50.156 36.5984L50.3218 36.6446L50.491 36.6934L50.6638 36.7448L50.8393 36.7982L51.0181 36.8543L51.1997 36.9127L51.3842 36.9741L51.5714 37.0375L51.7613 37.1039L51.9538 37.1729L52.1487 37.2443L52.3459 37.3186L52.5455 37.3953L52.7471 37.4749L52.9507 37.5572L53.1559 37.6422L53.3632 37.7301L53.5721 37.8204L53.7827 37.9137L53.9947 38.0099L54.2079 38.1085L54.4222 38.21L54.6378 38.3142L54.8544 38.4214L55.0721 38.5313L55.29 38.6438L55.509 38.759L55.7283 38.8771L55.9482 38.9979L56.1682 39.121L56.3885 39.2472L56.6088 39.3759L56.8291 39.5073L57.0491 39.6411L57.2687 39.7775L57.488 39.9165L57.7069 40.0583L57.9249 40.202L58.1422 40.3483L58.3588 40.4973L58.5741 40.6483L58.7887 40.8017L59.0016 40.9573L59.2136 41.1153L59.4239 41.2753L59.6328 41.4375L59.8397 41.6018L60.0453 41.7681L60.2485 41.936L60.4501 42.1063L60.6497 42.2782L60.8469 42.4518L61.0418 42.627L61.2344 42.8039L61.4242 42.9824L61.6118 43.1626L61.7963 43.3439L61.9785 43.5267L62.1573 43.7109L62.3335 43.8961L62.5067 44.0823L62.6765 44.2698L62.843 44.4583L63.0064 44.6475L63.1666 44.8376L63.323 45.0285L63.4758 45.22L63.6249 45.4118L63.7706 45.6043L63.9124 45.7971L64.0504 45.9902L64.1845 46.1837L64.3145 46.3772L64.4405 46.5707L64.5622 46.7639L64.6799 46.957L64.7936 47.1502L64.9029 47.3426L65.0078 47.5351L65.1085 47.7266L65.2044 47.9178L65.296 48.108L65.3832 48.2975L65.4661 48.486L65.544 48.6735L65.6176 48.86L65.6864 49.0455L65.7506 49.2294L65.8101 49.4119L65.865 49.5931L65.9151 49.7727L65.9602 49.9505L66.0007 50.1264L66.0364 50.301L66.0675 50.4732L66.0936 50.6435L66.115 50.8114L66.1317 50.9774L66.1434 51.141L66.1504 51.3023L66.1528 51.4609L66.1501 51.6172L66.1427 51.7706L66.1307 51.9216L66.1137 52.0693L66.0923 52.2143L66.0659 52.3563L66.0351 52.4954L65.9993 52.6311L65.9592 52.7635L65.9144 52.893L65.865 53.0188L65.8111 53.1412L65.7526 53.26L65.6898 53.3752L65.6226 53.487L65.5511 53.5949L65.4752 53.6988L65.3953 53.799L65.3107 53.8952L65.2224 53.9878L65.1298 54.0761L65.0329 54.1601L64.9323 54.2401L64.828 54.3161L64.7197 54.3874L64.6074 54.4548L64.4914 54.5178L64.372 54.5763L64.2487 54.6304L64.122 54.6801L63.9919 54.7253L63.8585 54.7661L63.7218 54.8019L63.5818 54.8335L63.4387 54.8603L63.2926 54.8826L63.1435 54.9002L62.9914 54.9131L62.8366 54.9211L62.6792 54.9247L62.519 54.9234L62.3562 54.9174L62.1911 54.9065L62.0236 54.8912L61.8541 54.871L61.682 54.8461L61.5082 54.8162L61.332 54.7817L61.1541 54.7425L60.9746 54.6987L60.7931 54.6499L60.6102 54.5968L60.4254 54.5388L60.2395 54.4764L60.0523 54.409L59.8638 54.3373L59.6739 54.261L59.4834 54.18L59.2915 54.0947L59.0993 54.0048L58.9057 53.9105L58.7118 53.8119L58.5173 53.7091L58.3224 53.6019L58.1271 53.4904L57.9313 53.3749L57.7357 53.2551L57.5395 53.1313L57.3436 53.0035L57.1477 52.8717L56.9521 52.736L56.7569 52.5966L56.5617 52.4532L56.3671 52.3065L56.1729 52.1559L55.9797 52.0019L55.7868 51.8442L55.5949 51.6836L55.4037 51.5193L55.2138 51.3521L55.0246 51.1815L54.8367 51.0079L54.6499 50.8317L54.4643 50.6521L54.2801 50.4699L54.0973 50.2854L53.9161 50.0979L53.7362 49.9081L53.5584 49.7159L53.3819 49.5214L53.2074 49.3246L53.0346 49.1258L52.8634 48.925L52.6946 48.7223L52.5278 48.5182L52.3627 48.3121L52.1999 48.1043L52.0394 47.8952L51.8809 47.6848L51.7248 47.4731L51.5711 47.2603L51.4196 47.0466L51.2705 46.8322L51.1238 46.6168L50.9797 46.4008L50.838 46.1841L50.6989 45.967L50.5625 45.7496L50.4285 45.5323L50.2974 45.3145L50.1687 45.0972L50.043 44.8798L49.9197 44.6624L49.7993 44.4457L49.6816 44.2296L49.5667 44.0139L49.4543 43.7989L49.345 43.5851L49.2384 43.3721L49.1344 43.16L49.0335 42.9492L48.9352 42.7398L48.8399 42.5317L48.747 42.325L48.657 42.1202L48.5701 41.9171L48.4859 41.716L48.404 41.5169L48.3254 41.3194L48.2492 41.1246L48.1757 40.9318L48.1048 40.7416L48.0369 40.5541L47.9714 40.3689L47.9086 40.1864L47.8481 40.0068L47.7906 39.8303L47.7351 39.6564L47.6826 39.4858L47.6321 39.3185L47.5843 39.1542L47.5385 38.9936L47.4954 38.8363L47.4543 38.6826L47.4155 38.5326L47.3791 38.3863L47.3446 38.2439L47.3122 38.1052L47.2818 37.9704L47.2534 37.8397L47.227 37.7132L47.2022 37.5907L47.1795 37.4726L47.1584 37.3588L47.139 37.2492L47.1213 37.144L47.1049 37.0435L47.0902 36.9476L47.0769 36.856L47.0648 36.769L47.0541 36.687L47.0448 36.6097L47.0364 36.537L47.0291 36.4693L47.023 36.4063L47.0177 36.3482L47.013 36.2951L47.0093 36.247L47.0063 36.2035L47.004 36.1653L47.0023 36.1321L47.001 36.1043L47 36.081L46.9996 36.0631L46.9993 36.0502L46.999 36.0422M46.999 36.0396V36.0422M46.999 36.0396H46.9953L46.9866 36.0399L46.9729 36.0402L46.9538 36.0409L46.9298 36.0419L46.9007 36.0432L46.8666 36.0449L46.8271 36.0472L46.783 36.0505L46.7335 36.0542L46.6794 36.0588L46.6202 36.0641L46.556 36.0704L46.4868 36.0781L46.413 36.0863L46.3341 36.096L46.2508 36.1069L46.1626 36.1189L46.0696 36.1325L45.972 36.1474L45.8701 36.1637L45.7634 36.1816L45.6525 36.2012L45.5371 36.2224L45.4174 36.2453L45.2934 36.2699L45.1654 36.2964L45.033 36.325L44.8966 36.3555L44.7562 36.388L44.6121 36.4225L44.4641 36.459L44.3123 36.4979L44.1568 36.539L43.9981 36.5825L43.8356 36.628L43.6698 36.6758L43.5006 36.7262L43.3285 36.779L43.153 36.8344L42.9745 36.8921L42.7933 36.9522L42.6091 37.0149L42.4219 37.0807L42.2327 37.1487L42.0405 37.2194L41.8459 37.2924L41.6493 37.3687L41.4504 37.4474L41.2495 37.5287L41.0463 37.613L40.8414 37.6999L40.6348 37.7895L40.4265 37.8818L40.2169 37.9771L40.0056 38.0753L39.793 38.1759L39.5794 38.2794L39.3645 38.3856L39.1488 38.4948L38.9322 38.6066L38.7149 38.7211L38.497 38.8386L38.2787 38.9584L38.0601 39.0812L37.8411 39.2067L37.6218 39.3348L37.4025 39.4655L37.1836 39.5986L36.9646 39.7347L36.746 39.8731L36.528 40.0141L36.3104 40.1575L36.0938 40.3035L35.8775 40.4519L35.6625 40.6025L35.4483 40.7559L35.2353 40.9112L35.0237 41.0688L34.8134 41.2285L34.6045 41.3904L34.3973 41.5547L34.1917 41.7206L33.9877 41.8886L33.7858 42.0588L33.5859 42.2304L33.3881 42.4043L33.1925 42.5795L32.9992 42.7568L32.8084 42.9353L32.6201 43.1155L32.4344 43.2971L32.2514 43.4803L32.0712 43.6648L31.8939 43.8503L31.7196 44.0371L31.5484 44.225L31.3803 44.4138L31.2155 44.6037L31.054 44.7945L30.8959 44.986L30.7413 45.1781L30.5903 45.371L30.4429 45.5641L30.2993 45.7579L30.1594 45.9517L30.0234 46.1462L29.8913 46.3407L29.7632 46.5352L29.6391 46.7297L29.5191 46.9241L29.4033 47.1183L29.2917 47.3121L29.1844 47.5056L29.0814 47.6988L28.9828 47.8909L28.8886 48.0827L28.7988 48.2739L28.7136 48.4641L28.6328 48.6532L28.5566 48.8414L28.4851 49.0283L28.4181 49.2141L28.3558 49.3986L28.2982 49.5815L28.2453 49.763L28.1971 49.9429L28.1536 50.1208L28.1149 50.2974L28.081 50.4716L28.0518 50.6442L28.0274 50.8144L28.0078 50.9827L27.993 51.1486L27.9829 51.3119L27.9776 51.4732L27.9771 51.6315L27.9813 51.7875L27.9903 51.9408L28.004 52.0912L28.0224 52.2388L28.0456 52.3835L28.0734 52.5249L28.1058 52.6633L28.1429 52.7987L28.1846 52.9308L28.2308 53.0592L28.2815 53.1844L28.3368 53.3062L28.3964 53.4243L28.4606 53.5388L28.529 53.6497L28.6018 53.7565L28.6789 53.8597L28.7601 53.959L28.8456 54.0542L28.9351 54.1455L29.0288 54.2328L29.1264 54.3157L29.228 54.3947L29.3334 54.4694L29.4427 54.5397L29.5557 54.6058L29.6724 54.6675L29.7927 54.7246L29.9165 54.7774L30.0439 54.8258L30.1746 54.8696L30.3086 54.9088L30.4459 54.9433L30.5863 54.9735L30.7299 54.9987L30.8764 55.0193L31.0258 55.0352L31.1781 55.0465L31.3331 55.0532L31.4909 55.0548L31.6512 55.0522L31.8139 55.0442L31.9791 55.0319L32.1466 55.0147L32.3163 54.9928L32.4882 54.9659L32.6621 54.9344L32.8379 54.8982L33.0156 54.857L33.195 54.8116L33.3761 54.7611L33.5589 54.7057L33.743 54.6459L33.9286 54.5816L34.1154 54.5125L34.3033 54.4389L34.4925 54.3605L34.6824 54.2779L34.8736 54.1906L35.0655 54.0987L35.2577 54.0024L35.4509 53.9019L35.6448 53.7973L35.8387 53.6881L36.0333 53.5746L36.2278 53.4572L36.4227 53.3354L36.6176 53.2096L36.8125 53.0798L37.0071 52.9464L37.2016 52.8087L37.3958 52.6673L37.5897 52.5223L37.7829 52.3736L37.9755 52.2212L38.1677 52.0653L38.3589 51.906L38.5495 51.7433L38.7393 51.5774L38.9279 51.4081L39.1154 51.2359L39.3019 51.0607L39.4871 50.8821L39.671 50.7012L39.8535 50.5174L40.0344 50.3309L40.2142 50.1417L40.3921 49.9502L40.5682 49.7564L40.7431 49.5603L40.9159 49.3621L41.0867 49.1617L41.2559 48.9592L41.423 48.7551L41.5882 48.5494L41.751 48.3416L41.9121 48.1325L42.0705 47.9221L42.227 47.7104L42.3814 47.4973L42.5332 47.2832L42.6826 47.0682L42.8297 46.8521L42.9741 46.6354L43.1165 46.4184L43.2559 46.2003L43.393 45.9823L43.5274 45.7639L43.6594 45.5452L43.7885 45.3265L43.9151 45.1078L44.0388 44.8894L44.1602 44.6714L44.2785 44.4537L44.3942 44.2363L44.5072 44.0199L44.6172 43.8042L44.7248 43.5891L44.8294 43.3754L44.9311 43.1626L45.0303 42.9509L45.1266 42.7408L45.2199 42.5321L45.3108 42.325L45.3987 42.1196L45.484 41.9158L45.5662 41.714L45.6461 41.5142L45.723 41.3167L45.7972 41.1213L45.8691 40.9281L45.9379 40.7373L46.0041 40.5491L46.068 40.3639L46.1291 40.1811L46.1877 40.0012L46.2438 39.8243L46.2973 39.6504L46.3484 39.4795L46.3973 39.3119L46.4437 39.1476L46.4875 38.987L46.5293 38.8293L46.5687 38.6757L46.6062 38.5257L46.6413 38.3793L46.6744 38.2366L46.7055 38.0979L46.7345 37.9634L46.762 37.8327L46.787 37.7062L46.8104 37.5838L46.8322 37.466L46.8522 37.3521L46.8706 37.2426L46.8873 37.1377L46.9027 37.0375L46.9164 36.9416L46.9291 36.8503L46.9401 36.7637L46.9502 36.6817L46.9589 36.6047L46.9665 36.5324L46.9732 36.4647L46.9789 36.4023L46.9836 36.3445L46.9876 36.2914L46.9906 36.2437L46.9933 36.2008L46.9953 36.163L46.9966 36.1302L46.9976 36.1023L46.9983 36.0797L46.999 36.0621V36.0495V36.0422" stroke="white" stroke-width="2"/>
</mask>
<g mask="url(#mask0_2448_21900)">
<path d="M99.5095 44.643L64.0508 -15.3908C63.1169 -16.9719 61.0688 -17.5021 59.4762 -16.5749L-0.54981 18.3694C-2.14242 19.2966 -2.67643 21.3299 -1.74254 22.9111L33.7162 82.9448C34.6501 84.5259 36.6982 85.0561 38.2908 84.1289L98.3168 49.1846C99.9094 48.2574 100.443 46.2241 99.5095 44.643Z" fill="#F2F2F3"/>
</g>
<path d="M79.916 44.4716V42.8746L81.5771 42.5633V31.2899L79.916 30.9788V29.3712H91.5015V33.2605H89.454L89.2761 31.3832H84.2096V35.6563H89.5479V37.6784H84.2096V42.4804H89.5583L89.7361 40.5618H91.7626V44.4716H79.916ZM93.528 44.4716V42.8746L95.1055 42.5633V35.1688L93.4444 34.8575V33.2502H97.5187L97.6441 34.7227C98.0131 34.1904 98.4728 33.7789 99.023 33.4885C99.5799 33.1911 100.224 33.0426 100.956 33.0426C101.694 33.0426 102.324 33.2084 102.846 33.5403C103.376 33.8655 103.776 34.3597 104.048 35.0234C104.396 34.4081 104.852 33.9242 105.416 33.5714C105.987 33.219 106.656 33.0426 107.422 33.0426C108.557 33.0426 109.449 33.4264 110.096 34.1937C110.751 34.9614 111.078 36.1229 111.078 37.6784V42.5633L112.656 42.8746V44.4716H106.962V42.8746L108.446 42.5633V37.6681C108.446 36.721 108.286 36.0572 107.965 35.6769C107.645 35.2966 107.175 35.1064 106.555 35.1064C105.977 35.1064 105.5 35.2896 105.124 35.6563C104.755 36.0227 104.514 36.4893 104.403 37.0562V42.5633L105.834 42.8746V44.4716H100.35V42.8746L101.781 42.5633V37.6681C101.781 36.7555 101.617 36.102 101.29 35.7081C100.963 35.3068 100.489 35.1064 99.8691 35.1064C99.3536 35.1064 98.9184 35.2103 98.5634 35.4177C98.215 35.6251 97.9366 35.9188 97.7276 36.2992V42.5633L99.2005 42.8746V44.4716H93.528ZM113.711 48.7861V47.1784L115.236 46.8675V35.1688L113.575 34.8575V33.2502H117.597L117.764 34.5777C118.112 34.0865 118.537 33.7098 119.039 33.447C119.54 33.1774 120.132 33.0426 120.814 33.0426C121.734 33.0426 122.521 33.2913 123.175 33.7892C123.83 34.287 124.328 34.9819 124.669 35.874C125.017 36.7658 125.192 37.8099 125.192 39.0059V39.224C125.192 40.3162 125.017 41.274 124.669 42.0967C124.321 42.9125 123.82 43.5487 123.165 44.005C122.517 44.4614 121.734 44.6894 120.814 44.6894C120.167 44.6894 119.599 44.5788 119.112 44.3575C118.624 44.1295 118.206 43.7976 117.858 43.3618V46.8675L119.467 47.1784V48.7861H113.711ZM120.02 42.6775C120.884 42.6775 121.521 42.3629 121.932 41.7337C122.35 41.0974 122.559 40.2608 122.559 39.224V39.0059C122.559 38.2317 122.465 37.554 122.277 36.9732C122.096 36.3854 121.814 35.9291 121.431 35.6042C121.055 35.2723 120.578 35.1064 120 35.1064C119.512 35.1064 119.087 35.2172 118.725 35.4383C118.37 35.6527 118.081 35.957 117.858 36.3509V41.495C118.081 41.8754 118.37 42.1691 118.725 42.3768C119.08 42.5773 119.512 42.6775 120.02 42.6775ZM132.17 44.6894C131.083 44.6894 130.15 44.4474 129.37 43.9635C128.59 43.4793 127.991 42.8089 127.573 41.9514C127.156 41.0872 126.947 40.0948 126.947 38.9751V38.757C126.947 37.6439 127.156 36.6586 127.573 35.8013C127.991 34.9441 128.59 34.2697 129.37 33.7789C130.15 33.288 131.076 33.0426 132.149 33.0426C133.235 33.0426 134.169 33.288 134.949 33.7789C135.729 34.2631 136.327 34.9335 136.745 35.791C137.163 36.6483 137.372 37.637 137.372 38.757V38.9751C137.372 40.0948 137.163 41.0872 136.745 41.9514C136.327 42.8089 135.729 43.4793 134.949 43.9635C134.176 44.4474 133.249 44.6894 132.17 44.6894ZM132.17 42.6775C132.755 42.6775 133.235 42.5219 133.612 42.2109C133.994 41.8926 134.28 41.4572 134.468 40.904C134.656 40.3437 134.75 39.7009 134.75 38.9751V38.757C134.75 38.0382 134.656 37.402 134.468 36.8487C134.28 36.2958 133.994 35.8601 133.612 35.5421C133.229 35.2239 132.741 35.0649 132.149 35.0649C131.571 35.0649 131.09 35.2239 130.707 35.5421C130.324 35.8601 130.039 36.2958 129.851 36.8487C129.67 37.402 129.579 38.0382 129.579 38.757V38.9751C129.579 39.7009 129.67 40.3437 129.851 40.904C130.039 41.4572 130.324 41.8926 130.707 42.2109C131.097 42.5219 131.585 42.6775 132.17 42.6775ZM143.452 44.6894C142.54 44.6894 141.76 44.4614 141.112 44.005C140.465 43.5487 139.967 42.9125 139.618 42.0967C139.277 41.274 139.106 40.3162 139.106 39.224V39.0059C139.106 37.8099 139.277 36.7658 139.618 35.874C139.967 34.9819 140.465 34.287 141.112 33.7892C141.767 33.2913 142.543 33.0426 143.442 33.0426C144.089 33.0426 144.654 33.1671 145.134 33.4161C145.622 33.6581 146.04 34.0072 146.388 34.4635V30.2113L144.727 29.9002V28.2926H146.388H149.02V42.5633L150.587 42.8746V44.4716H146.743L146.534 43.1129C146.179 43.6317 145.743 44.0256 145.228 44.2954C144.72 44.5579 144.128 44.6894 143.452 44.6894ZM144.194 42.6257C144.695 42.6257 145.127 42.5185 145.489 42.3041C145.851 42.0828 146.151 41.7648 146.388 41.35V36.403C146.158 36.0018 145.858 35.6872 145.489 35.4592C145.127 35.2239 144.702 35.1064 144.215 35.1064C143.644 35.1064 143.174 35.2723 142.805 35.6042C142.442 35.9291 142.174 36.3854 142 36.9732C141.826 37.554 141.739 38.2317 141.739 39.0059V39.224C141.739 40.2608 141.93 41.0872 142.314 41.7025C142.703 42.3178 143.33 42.6257 144.194 42.6257ZM157.001 44.6894C155.936 44.6894 155.006 44.4544 154.212 43.9841C153.425 43.5072 152.812 42.8504 152.373 42.0138C151.942 41.1771 151.726 40.2196 151.726 39.141V38.7053C151.726 37.6127 151.938 36.6413 152.363 35.791C152.795 34.9335 153.387 34.2631 154.139 33.7789C154.891 33.288 155.748 33.0426 156.709 33.0426C157.733 33.0426 158.589 33.2465 159.279 33.6544C159.975 34.0623 160.501 34.6431 160.856 35.3968C161.211 36.1435 161.389 37.0426 161.389 38.0933V39.5867H154.452L154.432 39.6388C154.459 40.2263 154.581 40.7483 154.797 41.2046C155.02 41.661 155.333 42.0207 155.737 42.2832C156.148 42.5461 156.646 42.6775 157.231 42.6775C157.844 42.6775 158.401 42.5945 158.903 42.4286C159.404 42.2627 159.867 42.0274 160.292 41.7234L161.117 43.3618C160.671 43.7352 160.104 44.0498 159.414 44.3057C158.725 44.5616 157.921 44.6894 157.001 44.6894ZM154.494 37.7511H158.871V37.4816C158.871 36.9905 158.795 36.562 158.641 36.1953C158.495 35.8222 158.262 35.5315 157.942 35.3244C157.628 35.1167 157.228 35.0131 156.74 35.0131C156.315 35.0131 155.943 35.1306 155.622 35.3656C155.302 35.6009 155.044 35.9225 154.849 36.3303C154.661 36.7313 154.533 37.1876 154.463 37.6993L154.494 37.7511ZM162.998 44.4716V42.8746L164.565 42.5633V35.1688L162.914 34.8575V33.2502H166.988L167.124 34.6607L167.145 34.8887C167.444 34.2939 167.81 33.8376 168.242 33.5197C168.681 33.2017 169.192 33.0426 169.777 33.0426C169.972 33.0426 170.178 33.0599 170.394 33.0945C170.617 33.129 170.798 33.1671 170.937 33.2084L170.634 35.6251L169.161 35.5421C168.681 35.5143 168.284 35.6079 167.97 35.8222C167.664 36.0363 167.406 36.3337 167.197 36.714V42.5633L168.764 42.8746V44.4716H162.998ZM175.617 44.6894C174.468 44.6894 173.573 44.3956 172.932 43.8079C172.292 43.2201 171.971 42.4113 171.971 41.3812C171.971 40.6756 172.166 40.057 172.556 39.5247C172.946 38.9923 173.517 38.5775 174.269 38.2801C175.021 37.9758 175.934 37.8238 177.006 37.8238H178.73V36.8799C178.73 36.2852 178.549 35.8116 178.187 35.4592C177.832 35.1064 177.313 34.9302 176.63 34.9302C176.24 34.9302 175.896 34.9786 175.596 35.0755C175.297 35.1651 175.028 35.2966 174.792 35.4695L174.551 36.9838H172.619L172.598 34.2146C173.155 33.8549 173.775 33.5714 174.458 33.364C175.14 33.1498 175.899 33.0426 176.735 33.0426C178.169 33.0426 179.298 33.378 180.119 34.0487C180.948 34.7124 181.363 35.6666 181.363 36.9111V41.8581C181.363 42.0101 181.363 42.1588 181.363 42.3041C181.37 42.4492 181.38 42.5909 181.394 42.7293L182.543 42.8746V44.4716H179.106C179.037 44.2297 178.97 43.9944 178.908 43.7664C178.852 43.5384 178.81 43.3101 178.782 43.0817C178.406 43.552 177.95 43.9393 177.414 44.2433C176.884 44.5407 176.286 44.6894 175.617 44.6894ZM176.213 42.6669C176.742 42.6669 177.236 42.5461 177.696 42.3041C178.156 42.0552 178.5 41.7439 178.73 41.3706V39.4935H176.975C176.188 39.4935 175.593 39.6767 175.189 40.0431C174.792 40.4028 174.593 40.8243 174.593 41.3085C174.593 41.7439 174.733 42.0795 175.011 42.3144C175.29 42.5494 175.69 42.6669 176.213 42.6669Z" fill="#F2F2F3"/>
<path d="M187.432 44.4716V42.8746L189.093 42.5633V31.3728H186.032L185.802 33.3019H183.828V29.3712H197.001V33.3019H195.016L194.787 31.3728H191.726V42.5633L193.387 42.8746V44.4716H187.432ZM198.401 44.4716V42.8746L200.062 42.5633V31.2898L198.401 30.9787V29.3712H204.345V30.9787L202.695 31.2898V42.5633L204.345 42.8746V44.4716H198.401Z" fill="#F2F2F3"/>
</svg>
