<svg width="500" height="500" viewBox="0 0 500 500" fill="none" xmlns="http://www.w3.org/2000/svg">
<g opacity="0.4">
<path d="M449.9 398.49H416.78V398.74H449.9V398.49Z" fill="#EBEBEB"/>
<path d="M331.22 401.21H322.53V401.46H331.22V401.21Z" fill="#EBEBEB"/>
<path d="M415.78 389.21H396.59V389.46H415.78V389.21Z" fill="#EBEBEB"/>
<path d="M95.65 390.89H52.46V391.14H95.65V390.89Z" fill="#EBEBEB"/>
<path d="M110.89 390.89H104.56V391.14H110.89V390.89Z" fill="#EBEBEB"/>
<path d="M225.15 395.11H131.47V395.36H225.15V395.11Z" fill="#EBEBEB"/>
<path d="M238.4 337.8H45.2998C43.7855 337.8 42.3331 337.198 41.2623 336.128C40.1914 335.057 39.5898 333.604 39.5898 332.09V60.66C39.603 59.1543 40.2104 57.7147 41.2798 56.6547C42.3492 55.5947 43.7941 54.9999 45.2998 55H238.4C239.15 55 239.892 55.1477 240.585 55.4346C241.278 55.7216 241.907 56.1422 242.437 56.6724C242.968 57.2026 243.388 57.8321 243.675 58.5249C243.962 59.2176 244.11 59.9602 244.11 60.71V332.09C244.11 332.84 243.962 333.582 243.675 334.275C243.388 334.968 242.968 335.597 242.437 336.128C241.907 336.658 241.278 337.078 240.585 337.365C239.892 337.652 239.15 337.8 238.4 337.8ZM45.2998 55.2C43.8526 55.2026 42.4653 55.7787 41.442 56.8021C40.4186 57.8255 39.8425 59.2127 39.8398 60.66V332.09C39.8425 333.537 40.4186 334.924 41.442 335.948C42.4653 336.971 43.8526 337.547 45.2998 337.55H238.4C239.847 337.547 241.234 336.971 242.258 335.948C243.281 334.924 243.857 333.537 243.86 332.09V60.66C243.857 59.2127 243.281 57.8255 242.258 56.8021C241.234 55.7787 239.847 55.2026 238.4 55.2H45.2998Z" fill="#EBEBEB"/>
<path d="M454.7 337.8H261.6C260.086 337.8 258.633 337.198 257.563 336.128C256.492 335.057 255.89 333.604 255.89 332.09V60.66C255.903 59.1543 256.511 57.7147 257.58 56.6547C258.65 55.5947 260.094 54.9999 261.6 55H454.7C456.215 55 457.667 55.6016 458.738 56.6724C459.809 57.7433 460.41 59.1956 460.41 60.71V332.09C460.41 333.604 459.809 335.057 458.738 336.128C457.667 337.198 456.215 337.8 454.7 337.8ZM261.6 55.2C260.153 55.2026 258.766 55.7787 257.742 56.8021C256.719 57.8255 256.143 59.2127 256.14 60.66V332.09C256.143 333.537 256.719 334.924 257.742 335.948C258.766 336.971 260.153 337.547 261.6 337.55H454.7C456.147 337.547 457.535 336.971 458.558 335.948C459.581 334.924 460.158 333.537 460.16 332.09V60.66C460.158 59.2127 459.581 57.8255 458.558 56.8021C457.535 55.7787 456.147 55.2026 454.7 55.2H261.6Z" fill="#EBEBEB"/>
<path d="M500 382.4H0V382.65H500V382.4Z" fill="#EBEBEB"/>
<path d="M404.41 91.33H377.52C368.993 91.33 362.08 98.2427 362.08 106.77V133.66C362.08 142.187 368.993 149.1 377.52 149.1H404.41C412.937 149.1 419.85 142.187 419.85 133.66V106.77C419.85 98.2427 412.937 91.33 404.41 91.33Z" fill="#F0F0F0"/>
<path d="M398.15 112.05C398.15 116.97 395.65 120.95 390.73 120.95C385.81 120.95 383.31 116.95 383.31 112.05C383.31 107.15 385.81 103.14 390.73 103.14C395.65 103.14 398.15 107.13 398.15 112.05Z" fill="#FAFAFA"/>
<path d="M390.73 137.28H404.46V129.12C404.46 124.61 398.31 120.95 390.73 120.95C383.15 120.95 377 124.61 377 129.12V137.28H390.73Z" fill="#FAFAFA"/>
<path d="M151.49 110.7H132.71C126.756 110.7 121.93 115.526 121.93 121.48V140.26C121.93 146.214 126.756 151.04 132.71 151.04H151.49C157.443 151.04 162.27 146.214 162.27 140.26V121.48C162.27 115.526 157.443 110.7 151.49 110.7Z" fill="#E6E6E6"/>
<path d="M141.28 133.05C141.886 132.208 142.587 131.44 143.37 130.76C143.904 130.288 144.399 129.773 144.85 129.22C145.159 128.811 145.324 128.312 145.32 127.8C145.331 127.45 145.255 127.103 145.097 126.791C144.94 126.478 144.707 126.21 144.42 126.01C143.712 125.546 142.876 125.318 142.03 125.36C141.144 125.339 140.267 125.542 139.48 125.95C138.734 126.352 138.091 126.92 137.6 127.61L133.91 125.45C134.769 124.154 135.965 123.116 137.37 122.45C138.991 121.698 140.764 121.332 142.55 121.38C144.535 121.286 146.501 121.807 148.18 122.87C148.853 123.324 149.401 123.94 149.771 124.662C150.142 125.384 150.324 126.189 150.3 127C150.317 127.755 150.174 128.504 149.88 129.2C149.637 129.785 149.299 130.325 148.88 130.8C148.48 131.24 147.97 131.74 147.34 132.31C146.737 132.823 146.185 133.392 145.69 134.01C145.335 134.489 145.152 135.074 145.17 135.67H140.56C140.523 134.743 140.775 133.828 141.28 133.05ZM140.79 142.52C140.515 142.266 140.298 141.956 140.153 141.611C140.009 141.266 139.939 140.894 139.95 140.52C139.942 140.158 140.012 139.798 140.155 139.465C140.299 139.132 140.512 138.833 140.78 138.59C141.366 138.087 142.113 137.81 142.885 137.81C143.658 137.81 144.404 138.087 144.99 138.59C145.257 138.834 145.468 139.133 145.61 139.466C145.751 139.799 145.819 140.158 145.81 140.52C145.821 140.894 145.752 141.266 145.607 141.611C145.462 141.956 145.245 142.266 144.97 142.52C144.399 143.041 143.654 143.33 142.88 143.33C142.107 143.33 141.361 143.041 140.79 142.52Z" fill="#FAFAFA"/>
<path d="M401.64 248.79H416.17C418.384 248.79 420.508 249.67 422.074 251.236C423.64 252.802 424.52 254.925 424.52 257.14V271.67C424.52 273.882 423.641 276.003 422.077 277.567C420.513 279.131 418.392 280.01 416.18 280.01H401.64C399.428 280.01 397.307 279.131 395.743 277.567C394.179 276.003 393.3 273.882 393.3 271.67V257.14C393.3 254.928 394.179 252.807 395.743 251.243C397.307 249.679 399.428 248.8 401.64 248.8V248.79Z" fill="#EBEBEB"/>
<path d="M408.26 266.09C408.73 265.44 409.274 264.846 409.88 264.32C410.296 263.953 410.681 263.551 411.03 263.12C411.269 262.807 411.395 262.423 411.39 262.03C411.401 261.759 411.342 261.491 411.219 261.249C411.097 261.008 410.915 260.801 410.69 260.65C410.144 260.285 409.496 260.107 408.84 260.14C408.17 260.12 407.505 260.269 406.908 260.573C406.31 260.877 405.799 261.327 405.42 261.88L402.56 260.21C403.221 259.198 404.148 258.388 405.24 257.87C406.492 257.29 407.861 257.006 409.24 257.04C410.778 256.965 412.302 257.371 413.6 258.2C414.123 258.552 414.548 259.032 414.835 259.593C415.122 260.155 415.261 260.78 415.24 261.41C415.252 261.993 415.143 262.571 414.92 263.11C414.732 263.564 414.468 263.984 414.14 264.35C413.766 264.762 413.368 265.153 412.95 265.52C412.487 265.919 412.058 266.357 411.67 266.83C411.402 267.206 411.261 267.658 411.27 268.12H407.71C407.679 267.403 407.871 266.693 408.26 266.09ZM407.88 273.42C407.671 273.227 407.506 272.991 407.396 272.729C407.286 272.467 407.233 272.184 407.24 271.9C407.234 271.62 407.287 271.341 407.396 271.083C407.504 270.825 407.666 270.592 407.87 270.4C408.324 270.012 408.902 269.799 409.5 269.799C410.098 269.799 410.676 270.012 411.13 270.4C411.336 270.591 411.5 270.823 411.61 271.082C411.72 271.34 411.775 271.619 411.77 271.9C411.776 272.185 411.722 272.468 411.609 272.73C411.497 272.992 411.33 273.228 411.12 273.42C410.906 273.629 410.653 273.792 410.374 273.9C410.096 274.008 409.799 274.059 409.5 274.05C409.202 274.057 408.905 274.005 408.627 273.897C408.349 273.789 408.095 273.627 407.88 273.42Z" fill="#FAFAFA"/>
<path d="M117.11 171.2H98.3298C92.3762 171.2 87.5498 176.026 87.5498 181.98V200.76C87.5498 206.714 92.3762 211.54 98.3298 211.54H117.11C123.063 211.54 127.89 206.714 127.89 200.76V181.98C127.89 176.026 123.063 171.2 117.11 171.2Z" fill="#EBEBEB"/>
<path d="M107.72 180C106.521 180 105.334 180.236 104.227 180.695C103.12 181.154 102.114 181.827 101.267 182.675C100.42 183.523 99.7487 184.529 99.291 185.637C98.8332 186.745 98.5983 187.932 98.5996 189.13C98.5996 194.13 102.68 206.25 107.72 206.25C112.76 206.25 116.84 194.16 116.84 189.13C116.841 187.932 116.606 186.745 116.148 185.637C115.691 184.529 115.019 183.523 114.172 182.675C113.325 181.827 112.319 181.154 111.212 180.695C110.105 180.236 108.918 180 107.72 180ZM107.72 191.88C107.176 191.88 106.644 191.719 106.192 191.417C105.74 191.114 105.387 190.685 105.179 190.182C104.971 189.68 104.916 189.127 105.022 188.594C105.129 188.06 105.39 187.57 105.775 187.185C106.16 186.801 106.65 186.539 107.183 186.433C107.717 186.327 108.269 186.381 108.772 186.589C109.274 186.797 109.704 187.15 110.006 187.602C110.308 188.054 110.47 188.586 110.47 189.13C110.459 189.852 110.165 190.542 109.65 191.049C109.136 191.556 108.442 191.84 107.72 191.84V191.88Z" fill="#FAFAFA"/>
<path d="M111.75 246.44C112.043 244.588 112.043 242.702 111.75 240.85L108.94 240.48C108.713 239.448 108.378 238.442 107.94 237.48L110 235.53C109.143 233.862 108.034 232.338 106.71 231.01L104.21 232.37C103.437 231.67 102.593 231.053 101.69 230.53L102.21 227.74C100.549 226.885 98.7639 226.298 96.92 226L95.71 228.55C95.2 228.5 94.71 228.47 94.15 228.47C93.59 228.47 93.09 228.47 92.58 228.55L91.37 226C89.5164 226.292 87.7208 226.876 86.05 227.73L86.57 230.52C85.6675 231.043 84.8228 231.66 84.05 232.36L81.55 231C80.2264 232.328 79.1165 233.852 78.26 235.52L80.32 237.47C79.8819 238.432 79.5467 239.438 79.32 240.47L76.52 240.84C76.2134 242.691 76.2134 244.579 76.52 246.43L79.32 246.8C79.5467 247.832 79.8819 248.838 80.32 249.8L78.26 251.75C79.1146 253.419 80.2246 254.944 81.55 256.27L84.05 254.91C84.8228 255.61 85.6675 256.227 86.57 256.75L86.05 259.54C87.7208 260.394 89.5164 260.978 91.37 261.27L92.58 258.72C93.09 258.77 93.58 258.8 94.15 258.8C94.72 258.8 95.15 258.8 95.71 258.72L96.92 261.27C98.7736 260.978 100.569 260.394 102.24 259.54L101.72 256.75C102.623 256.227 103.467 255.61 104.24 254.91L106.74 256.27C108.064 254.942 109.173 253.418 110.03 251.75L108 249.78C108.437 248.818 108.772 247.812 109 246.78L111.75 246.44ZM94.15 249.87C92.917 249.872 91.7111 249.508 90.685 248.824C89.659 248.14 88.8589 247.168 88.3862 246.029C87.9134 244.89 87.7892 243.636 88.0292 242.427C88.2693 241.218 88.8629 240.107 89.7347 239.235C90.6066 238.363 91.7176 237.769 92.9271 237.529C94.1365 237.289 95.39 237.413 96.5288 237.886C97.6675 238.359 98.6404 239.159 99.3242 240.185C100.008 241.211 100.372 242.417 100.37 243.65C100.367 245.299 99.7112 246.879 98.5453 248.045C97.3794 249.211 95.7988 249.867 94.15 249.87Z" fill="#EBEBEB"/>
<path d="M120.77 266.56C120.842 266.097 120.879 265.629 120.88 265.16C120.88 264.691 120.843 264.223 120.77 263.76L119.36 263.58C119.253 263.068 119.093 262.568 118.88 262.09L119.88 261.09C119.452 260.252 118.896 259.486 118.23 258.82L116.98 259.5C116.592 259.152 116.17 258.844 115.72 258.58L115.98 257.19C115.146 256.761 114.248 256.467 113.32 256.32L112.72 257.6C112.46 257.6 112.2 257.6 111.94 257.6C111.68 257.6 111.41 257.6 111.15 257.6L110.55 256.32C109.623 256.467 108.725 256.761 107.89 257.19L108.15 258.58C107.701 258.844 107.279 259.152 106.89 259.5L105.64 258.82C104.975 259.486 104.418 260.252 103.99 261.09L104.99 262.09C104.778 262.568 104.617 263.068 104.51 263.58L103.11 263.76C103.033 264.223 102.996 264.691 103 265.16C102.997 265.629 103.034 266.097 103.11 266.56L104.51 266.74C104.617 267.249 104.778 267.745 104.99 268.22L103.99 269.22C104.419 270.055 104.976 270.817 105.64 271.48L106.89 270.8C107.274 271.154 107.696 271.463 108.15 271.72L107.89 273.11C108.725 273.539 109.623 273.833 110.55 273.98L111.15 272.7C111.672 272.753 112.198 272.753 112.72 272.7L113.32 273.98C114.248 273.833 115.146 273.539 115.98 273.11L115.72 271.72C116.174 271.463 116.597 271.154 116.98 270.8L118.23 271.48C118.895 270.817 119.452 270.055 119.88 269.22L118.88 268.22C119.092 267.745 119.253 267.249 119.36 266.74L120.77 266.56ZM111.97 268.27C111.355 268.27 110.754 268.088 110.243 267.746C109.731 267.404 109.332 266.918 109.097 266.35C108.862 265.782 108.8 265.157 108.92 264.553C109.04 263.95 109.336 263.396 109.771 262.961C110.206 262.526 110.76 262.23 111.364 262.11C111.967 261.99 112.592 262.051 113.161 262.287C113.729 262.522 114.214 262.921 114.556 263.432C114.898 263.944 115.08 264.545 115.08 265.16C115.078 265.979 114.753 266.764 114.177 267.346C113.601 267.928 112.819 268.259 112 268.27H111.97Z" fill="#E0E0E0"/>
<path d="M429.74 246.38C430.117 246.102 430.475 245.798 430.81 245.47C431.14 245.137 431.445 244.78 431.72 244.4L430.86 243.28C431.144 242.844 431.379 242.378 431.56 241.89H432.98C433.271 240.999 433.419 240.067 433.42 239.13L432.05 238.73C432.029 238.209 431.949 237.692 431.81 237.19L432.98 236.39C432.697 235.496 432.268 234.654 431.71 233.9L430.38 234.37C430.217 234.167 430.043 233.974 429.86 233.79C429.67 233.6 429.48 233.43 429.28 233.26L429.75 231.93C428.99 231.382 428.15 230.953 427.26 230.66L426.46 231.83C425.952 231.701 425.433 231.62 424.91 231.59L424.51 230.23C423.572 230.227 422.64 230.376 421.75 230.67V232.08C421.263 232.268 420.797 232.506 420.36 232.79L419.23 231.93C418.464 232.49 417.789 233.164 417.23 233.93L418.09 235.05C417.808 235.492 417.57 235.961 417.38 236.45H415.97C415.68 237.341 415.532 238.273 415.53 239.21L416.89 239.61C416.919 240.13 417 240.646 417.13 241.15L415.96 241.96C416.253 242.85 416.682 243.69 417.23 244.45L418.56 243.97C418.73 244.17 418.9 244.37 419.09 244.56C419.28 244.75 419.47 244.92 419.67 245.08L419.2 246.41C419.954 246.968 420.795 247.397 421.69 247.68L422.49 246.51C422.992 246.649 423.509 246.73 424.03 246.75L424.43 248.12C425.37 248.119 426.305 247.971 427.2 247.68V246.26C427.686 246.075 428.152 245.841 428.59 245.56L429.74 246.38ZM422.31 241.38C421.875 240.945 421.579 240.391 421.459 239.788C421.34 239.184 421.401 238.559 421.637 237.991C421.872 237.423 422.271 236.937 422.782 236.596C423.294 236.254 423.895 236.072 424.51 236.072C425.125 236.072 425.726 236.254 426.237 236.596C426.749 236.937 427.147 237.423 427.383 237.991C427.618 238.559 427.68 239.184 427.56 239.788C427.44 240.391 427.144 240.945 426.71 241.38C426.421 241.67 426.078 241.899 425.7 242.056C425.322 242.212 424.917 242.292 424.508 242.291C424.099 242.29 423.694 242.208 423.317 242.05C422.939 241.892 422.597 241.661 422.31 241.37V241.38Z" fill="#F0F0F0"/>
<path d="M196.47 144.47C185.78 144.47 177.12 150.78 177.12 158.56C177.12 164.21 181.71 169.08 188.32 171.32C187.612 174.565 186.393 177.677 184.71 180.54C187.109 180.183 189.395 179.286 191.396 177.915C193.397 176.545 195.06 174.738 196.26 172.63H196.47C207.16 172.63 215.82 166.33 215.82 158.55C215.82 150.77 207.16 144.47 196.47 144.47Z" fill="#3F93DF"/>
<path opacity="0.7" d="M196.47 144.47C185.78 144.47 177.12 150.78 177.12 158.56C177.12 164.21 181.71 169.08 188.32 171.32C187.612 174.565 186.393 177.677 184.71 180.54C187.109 180.183 189.395 179.286 191.396 177.915C193.397 176.545 195.06 174.738 196.26 172.63H196.47C207.16 172.63 215.82 166.33 215.82 158.55C215.82 150.77 207.16 144.47 196.47 144.47Z" fill="white"/>
<path d="M187.94 161.27C189.028 161.27 189.91 160.388 189.91 159.3C189.91 158.212 189.028 157.33 187.94 157.33C186.852 157.33 185.97 158.212 185.97 159.3C185.97 160.388 186.852 161.27 187.94 161.27Z" fill="#263238"/>
<path d="M198.31 159.3C198.31 159.696 198.193 160.082 197.973 160.411C197.753 160.74 197.441 160.996 197.075 161.148C196.71 161.299 196.308 161.339 195.92 161.262C195.532 161.184 195.176 160.994 194.896 160.714C194.616 160.435 194.426 160.078 194.348 159.69C194.271 159.302 194.311 158.9 194.462 158.535C194.614 158.169 194.87 157.857 195.199 157.637C195.528 157.417 195.914 157.3 196.31 157.3C196.84 157.3 197.349 157.511 197.724 157.886C198.099 158.261 198.31 158.77 198.31 159.3Z" fill="#263238"/>
<path d="M204.74 161.27C205.828 161.27 206.71 160.388 206.71 159.3C206.71 158.212 205.828 157.33 204.74 157.33C203.652 157.33 202.77 158.212 202.77 159.3C202.77 160.388 203.652 161.27 204.74 161.27Z" fill="#263238"/>
<path d="M167.87 317.63H161.3V360.81H167.87V317.63Z" fill="#263238"/>
<path opacity="0.5" d="M167.87 317.63H161.3V360.81H167.87V317.63Z" fill="white"/>
<path d="M184.55 393.15L169.16 390.37V359.47C169.161 359.242 169.117 359.017 169.031 358.806C168.944 358.596 168.817 358.405 168.656 358.244C168.495 358.083 168.304 357.955 168.093 357.869C167.883 357.783 167.657 357.739 167.43 357.74H161.74C161.512 357.739 161.285 357.782 161.074 357.869C160.863 357.955 160.671 358.082 160.51 358.243C160.348 358.404 160.22 358.595 160.132 358.806C160.045 359.016 160 359.242 160 359.47V390.37L144.62 393.15C143.54 393.343 142.562 393.909 141.858 394.75C141.154 395.591 140.769 396.653 140.77 397.75L164.58 395.6L188.4 397.75C188.398 396.654 188.012 395.593 187.308 394.752C186.605 393.911 185.628 393.344 184.55 393.15Z" fill="#263238"/>
<path d="M145.77 402.42C145.77 403.409 145.476 404.376 144.927 405.198C144.377 406.02 143.597 406.661 142.683 407.039C141.769 407.418 140.764 407.517 139.794 407.324C138.824 407.131 137.933 406.655 137.234 405.956C136.535 405.256 136.059 404.365 135.866 403.395C135.673 402.426 135.772 401.42 136.15 400.507C136.529 399.593 137.169 398.812 137.992 398.263C138.814 397.713 139.781 397.42 140.77 397.42C142.096 397.42 143.367 397.947 144.305 398.884C145.243 399.822 145.77 401.094 145.77 402.42Z" fill="#3F93DF"/>
<path d="M193.399 402.42C193.399 403.409 193.106 404.376 192.557 405.198C192.007 406.02 191.226 406.661 190.313 407.039C189.399 407.418 188.394 407.517 187.424 407.324C186.454 407.131 185.563 406.655 184.864 405.956C184.165 405.256 183.688 404.365 183.495 403.395C183.303 402.426 183.402 401.42 183.78 400.507C184.158 399.593 184.799 398.812 185.622 398.263C186.444 397.713 187.41 397.42 188.399 397.42C189.056 397.42 189.706 397.549 190.313 397.801C190.919 398.052 191.471 398.42 191.935 398.884C192.399 399.349 192.768 399.9 193.019 400.507C193.27 401.113 193.399 401.763 193.399 402.42Z" fill="#3F93DF"/>
<path d="M168.49 402.42C168.49 405.18 167.35 407.42 164.58 407.42C161.81 407.42 160.68 405.18 160.68 402.42C160.68 399.66 161.82 397.42 164.58 397.42C167.34 397.42 168.49 399.66 168.49 402.42Z" fill="#3F93DF"/>
<g opacity="0.5">
<path d="M169.31 390.39V396.03L171.17 396.2V390.73L169.31 390.39Z" fill="black"/>
<path d="M158.04 390.72V396.19L159.9 396.03V390.39L158.04 390.72Z" fill="black"/>
</g>
<path d="M121.69 278.3C121.275 278.301 120.866 278.392 120.491 278.568C120.115 278.744 119.783 279.001 119.518 279.32C119.253 279.638 119.061 280.011 118.956 280.412C118.851 280.813 118.835 281.232 118.91 281.64L125.01 314.51C125.285 316.004 126.075 317.354 127.243 318.325C128.41 319.297 129.881 319.83 131.4 319.83H227.53C228.096 319.83 228.658 319.718 229.181 319.501C229.705 319.284 230.18 318.965 230.581 318.564C230.981 318.163 231.298 317.687 231.514 317.162C231.73 316.638 231.841 316.077 231.84 315.51C231.84 313.884 231.194 312.325 230.044 311.175C228.895 310.026 227.335 309.38 225.71 309.38H170.86C169.406 309.38 167.994 308.894 166.848 307.999C165.703 307.104 164.89 305.851 164.54 304.44L159.63 284.62C159.183 282.817 158.146 281.215 156.683 280.07C155.221 278.924 153.417 278.301 151.56 278.3H121.69Z" fill="#263238"/>
<path d="M134.67 304.44L129.76 284.62C129.313 282.817 128.276 281.215 126.813 280.07C125.351 278.924 123.547 278.301 121.69 278.3C121.275 278.301 120.866 278.392 120.491 278.568C120.115 278.744 119.783 279.001 119.518 279.32C119.253 279.638 119.061 280.011 118.956 280.412C118.851 280.813 118.835 281.232 118.91 281.64L125.01 314.51C125.285 316.004 126.075 317.354 127.243 318.325C128.41 319.297 129.881 319.83 131.4 319.83H197.65C198.217 319.831 198.78 319.72 199.304 319.504C199.829 319.287 200.306 318.969 200.707 318.568C201.109 318.166 201.427 317.689 201.643 317.165C201.86 316.64 201.971 316.078 201.97 315.51C201.967 313.885 201.32 312.327 200.171 311.178C199.022 310.029 197.465 309.383 195.84 309.38H141C139.544 309.384 138.128 308.9 136.981 308.004C135.833 307.109 135.019 305.853 134.67 304.44Z" fill="#263238"/>
<path opacity="0.2" d="M134.67 304.44L129.76 284.62C129.313 282.817 128.276 281.215 126.813 280.07C125.351 278.924 123.547 278.301 121.69 278.3C121.275 278.301 120.866 278.392 120.491 278.568C120.115 278.744 119.783 279.001 119.518 279.32C119.253 279.638 119.061 280.011 118.956 280.412C118.851 280.813 118.835 281.232 118.91 281.64L125.01 314.51C125.285 316.004 126.075 317.354 127.243 318.325C128.41 319.297 129.881 319.83 131.4 319.83H197.65C198.217 319.831 198.78 319.72 199.304 319.504C199.829 319.287 200.306 318.969 200.707 318.568C201.109 318.166 201.427 317.689 201.643 317.165C201.86 316.64 201.971 316.078 201.97 315.51C201.967 313.885 201.32 312.327 200.171 311.178C199.022 310.029 197.465 309.383 195.84 309.38H141C139.544 309.384 138.128 308.9 136.981 308.004C135.833 307.109 135.019 305.853 134.67 304.44Z" fill="white"/>
<path d="M175.28 184.25C175.28 184.25 186.22 187.51 181.11 195.6L176.36 188.68L175.28 184.25Z" fill="#263238"/>
<path d="M214.689 225.95L219.459 218.95L224.179 220.45L225.039 222.35L219.159 230.76L214.689 225.95Z" fill="#DBB178"/>
<path d="M221.76 227.78C216.98 235.28 209.44 246.22 206.56 245.57C198.1 243.68 186.47 235.67 180.5 226.87C179.599 225.542 179.229 223.925 179.464 222.337C179.699 220.75 180.522 219.309 181.77 218.3V218.24C182.421 217.709 183.17 217.311 183.975 217.069C184.78 216.828 185.625 216.748 186.461 216.833C187.297 216.919 188.107 217.168 188.847 217.567C189.586 217.967 190.24 218.508 190.77 219.16C190.88 219.29 190.98 219.43 191.08 219.57C196.37 227.16 203.08 234.36 204.18 234.97C205.47 235.71 208.82 232.54 215.91 223.58L221.76 227.78Z" fill="#3F93DF"/>
<path opacity="0.6" d="M221.76 227.78C216.98 235.28 209.44 246.22 206.56 245.57C198.1 243.68 186.47 235.67 180.5 226.87C179.599 225.542 179.229 223.925 179.464 222.337C179.699 220.75 180.522 219.309 181.77 218.3V218.24C182.421 217.709 183.17 217.311 183.975 217.069C184.78 216.828 185.625 216.748 186.461 216.833C187.297 216.919 188.107 217.168 188.847 217.567C189.586 217.967 190.24 218.508 190.77 219.16C190.88 219.29 190.98 219.43 191.08 219.57C196.37 227.16 203.08 234.36 204.18 234.97C205.47 235.71 208.82 232.54 215.91 223.58L221.76 227.78Z" fill="white"/>
<path d="M221.869 221.73L231.319 223.58L226.919 215.66C226.919 215.66 221.199 215.66 219.459 218.95L221.869 221.73Z" fill="#DBB178"/>
<path opacity="0.2" d="M194.5 240.1C187.65 235.42 186.74 224.44 186.74 224.44L182.86 222.67L181 227.61C184.716 232.547 189.289 236.778 194.5 240.1Z" fill="black"/>
<path d="M238 220.19L233.96 213.75L226.93 215.66L231.32 223.58L238 220.19Z" fill="#DBB178"/>
<path d="M185.519 264.14L151.999 266.34C151.999 266.34 151.759 257.34 150.589 249.05C150.226 246.165 149.652 243.311 148.869 240.51C147.999 237.65 146.869 234.44 145.569 230.71C145.399 230.25 145.229 229.79 145.039 229.31C144.599 228.15 144.149 226.94 143.639 225.68V225.62C143.187 224.389 143.236 223.029 143.776 221.833C144.317 220.638 145.306 219.703 146.529 219.23C146.76 219.14 146.997 219.07 147.239 219.02C149.369 218.57 151.519 218.16 153.699 217.82L155.579 217.54C160.599 216.792 165.657 216.338 170.729 216.18C173.359 216.18 176.169 216.26 178.569 216.37L180.569 216.47C183.109 216.62 184.869 216.78 184.869 216.78C184.869 216.78 185.969 217 186.619 222.89C186.634 223.225 186.668 223.559 186.719 223.89C186.799 225.11 186.869 226.65 186.899 228.5C186.999 236.06 186.549 248.75 185.519 264.14Z" fill="#3F93DF"/>
<path opacity="0.6" d="M185.519 264.14L151.999 266.34C151.999 266.34 151.759 257.34 150.589 249.05C150.226 246.165 149.652 243.311 148.869 240.51C147.999 237.65 146.869 234.44 145.569 230.71C145.399 230.25 145.229 229.79 145.039 229.31C144.599 228.15 144.149 226.94 143.639 225.68V225.62C143.187 224.389 143.236 223.029 143.776 221.833C144.317 220.638 145.306 219.703 146.529 219.23C146.76 219.14 146.997 219.07 147.239 219.02C149.369 218.57 151.519 218.16 153.699 217.82L155.579 217.54C160.599 216.792 165.657 216.338 170.729 216.18C173.359 216.18 176.169 216.26 178.569 216.37L180.569 216.47C183.109 216.62 184.869 216.78 184.869 216.78C184.869 216.78 185.969 217 186.619 222.89C186.634 223.225 186.668 223.559 186.719 223.89C186.799 225.11 186.869 226.65 186.899 228.5C186.999 236.06 186.549 248.75 185.519 264.14Z" fill="white"/>
<path d="M156.75 217.38L165.11 228.52L171.11 223.38L178.91 227.14L174.69 216.23C173.39 216.23 172.05 216.23 170.76 216.23C166.072 216.357 161.395 216.741 156.75 217.38Z" fill="#3F93DF"/>
<path opacity="0.9" d="M156.75 217.38L165.11 228.52L171.11 223.38L178.91 227.14L174.69 216.23C173.39 216.23 172.05 216.23 170.76 216.23C166.072 216.357 161.395 216.741 156.75 217.38Z" fill="white"/>
<path d="M230.739 398.57H223.609L226.859 344.75H240.199L230.739 398.57Z" fill="#DBB178"/>
<path d="M222.819 397.89C222.739 397.21 231.249 396.57 231.249 396.57C231.249 396.57 237.169 401.13 242.369 401.57C247.569 402.01 245.179 405.46 239.549 406.24L225.619 408.24C221.619 408.83 223.639 405 222.819 397.89Z" fill="#263238"/>
<path d="M235.52 398.18C234.434 398.116 233.362 397.911 232.33 397.57C232.288 397.56 232.251 397.539 232.22 397.51C232.2 397.441 232.2 397.369 232.22 397.3C232.22 397.21 232.69 395.1 233.78 394.48C233.943 394.381 234.126 394.317 234.316 394.295C234.505 394.273 234.698 394.291 234.88 394.35C235.41 394.51 235.55 394.81 235.56 395.02C235.56 395.45 235.15 395.93 234.56 396.37C235.129 396.21 235.731 396.21 236.3 396.37C236.424 396.417 236.537 396.488 236.633 396.579C236.729 396.67 236.806 396.779 236.86 396.9C236.943 397.057 236.979 397.236 236.963 397.413C236.947 397.591 236.88 397.76 236.77 397.9C236.406 398.154 235.957 398.254 235.52 398.18ZM233.23 397.28C234.51 397.61 236.01 397.83 236.34 397.47C236.42 397.4 236.4 397.25 236.34 397.07C236.316 397.011 236.279 396.959 236.232 396.915C236.186 396.872 236.13 396.84 236.07 396.82C235.099 396.705 234.115 396.864 233.23 397.28ZM234.39 394.78C234.241 394.78 234.096 394.821 233.97 394.9C233.4 395.396 232.998 396.056 232.82 396.79C233.92 396.16 235.02 395.37 235.02 395.03C235.02 394.97 234.9 394.89 234.71 394.82C234.606 394.791 234.498 394.778 234.39 394.78Z" fill="#3F93DF"/>
<path opacity="0.2" d="M226.29 354.16L238.48 354.53L240.2 344.75H226.86L226.29 354.16Z" fill="black"/>
<path d="M196.519 399.48L189.689 398.57L200.499 338.98L213.979 342.83L196.519 399.48Z" fill="#DBB178"/>
<path d="M188.799 397.62C188.799 396.92 197.319 397.62 197.319 397.62C197.319 397.62 202.489 403.01 207.559 404.22C212.629 405.43 209.759 408.5 204.079 408.42L189.999 408.25C185.929 408.21 188.529 404.8 188.799 397.62Z" fill="#263238"/>
<path d="M201.8 399.84C200.554 399.686 199.346 399.314 198.23 398.74L198.16 398.68C198.155 398.669 198.152 398.657 198.152 398.645C198.152 398.633 198.155 398.621 198.16 398.61C198.145 398.579 198.137 398.545 198.137 398.51C198.137 398.475 198.145 398.441 198.16 398.41C198.16 398.33 198.94 396.33 200.16 395.86C200.332 395.781 200.52 395.74 200.71 395.74C200.899 395.74 201.087 395.781 201.26 395.86C201.76 396.11 201.85 396.41 201.83 396.62C201.83 397.05 201.29 397.46 200.66 397.8C201.247 397.728 201.843 397.822 202.38 398.07C202.495 398.131 202.595 398.216 202.675 398.32C202.754 398.423 202.81 398.543 202.84 398.67C202.904 398.833 202.916 399.011 202.875 399.181C202.834 399.351 202.741 399.505 202.61 399.62C202.375 399.788 202.087 399.867 201.8 399.84ZM199.13 398.56C200.35 399.08 201.8 399.56 202.13 399.22C202.21 399.16 202.23 399.02 202.13 398.82C202.114 398.761 202.087 398.705 202.049 398.657C202.011 398.609 201.964 398.569 201.91 398.54C200.997 398.303 200.039 398.31 199.13 398.56ZM200.53 396.26C200.42 396.264 200.311 396.288 200.21 396.33C199.58 396.729 199.087 397.312 198.8 398C200.02 397.55 201.17 396.9 201.19 396.58C201.19 396.52 201.09 396.42 200.92 396.34C200.813 396.287 200.698 396.253 200.58 396.24L200.53 396.26Z" fill="#3F93DF"/>
<path opacity="0.2" d="M213.98 342.83L200.5 338.98L198.37 350.73L210.85 352.98L213.98 342.83Z" fill="black"/>
<path d="M223.33 349.37L240.48 350.27C244.87 330.05 249.25 307.76 248.38 302.87C246.73 293.5 234 283.96 184.58 275.87L161.58 310.43C161.58 310.43 195.22 308.86 225.88 308.86C225.87 308.88 224.16 328.12 223.33 349.37Z" fill="#3F93DF"/>
<path opacity="0.1" d="M223.33 349.37L240.48 350.27C244.87 330.05 249.25 307.76 248.38 302.87C246.73 293.5 234 283.96 184.58 275.87L161.58 310.43C161.58 310.43 195.22 308.86 225.88 308.86C225.87 308.88 224.16 328.12 223.33 349.37Z" fill="black"/>
<path d="M222.18 346.68L222.69 351.17L241.48 351.81L242.4 347.68L222.18 346.68Z" fill="#3F93DF"/>
<path d="M173.63 216.21H170.73C166.57 216.34 162.42 216.68 158.29 217.21C160.09 219.36 165.7 222.71 169.46 222.71C174.71 222.67 173.54 218.77 173.63 216.21Z" fill="#DBB178"/>
<path d="M196.67 345.89L214.2 348.74C221.32 328.81 228.44 307.6 228.32 302.82C228.08 293.3 225.99 288.36 191.56 280.68C191.56 280.68 189.73 278.01 185.56 264.18L152 266.38C152 266.38 136.69 294.58 148.54 306.62C151.16 309.3 156.31 310.5 161.54 310.45C161.54 310.45 173.64 310.51 203.54 309.11C203.55 309.11 200 326.17 196.67 345.89Z" fill="#3F93DF"/>
<path d="M195.969 342.83L216.279 346.26L214.349 350.53L195.879 347.5L195.969 342.83Z" fill="#3F93DF"/>
<path opacity="0.1" d="M222.18 346.68L222.69 351.17L241.48 351.81L242.4 347.68L222.18 346.68Z" fill="black"/>
<path d="M171.09 213.32C170.704 215.789 170.806 218.31 171.39 220.74L162.2 219.39C162.002 219.361 161.813 219.286 161.649 219.172C161.484 219.058 161.348 218.908 161.251 218.733C161.155 218.557 161.1 218.362 161.091 218.162C161.082 217.962 161.119 217.763 161.2 217.58C162.46 214.72 162.96 208.96 163.27 206.31C163.44 204.71 163.51 203.25 163.52 202.23C163.53 201.21 163.52 200.83 163.52 200.83L167.63 202.71L174.34 205.78C172.793 208.067 171.69 210.625 171.09 213.32Z" fill="#DBB178"/>
<path opacity="0.2" d="M174.36 205.78C172.798 208.065 171.678 210.622 171.06 213.32C167.706 211.99 164.937 209.508 163.25 206.32C163.43 204.72 163.5 203.26 163.51 202.24C164.97 202.39 166.33 202.54 167.63 202.72L174.36 205.78Z" fill="black"/>
<path d="M174.85 199.22C174.58 202.29 176.15 204.77 178.35 204.77C180.55 204.77 182.56 202.29 182.83 199.22C183.1 196.15 181.53 193.66 179.33 193.66C177.13 193.66 175.12 196.15 174.85 199.22Z" fill="#3F93DF"/>
<path opacity="0.5" d="M174.459 199.22C174.189 202.29 175.759 204.77 177.959 204.77C180.159 204.77 182.159 202.29 182.429 199.22C182.699 196.15 181.129 193.66 178.929 193.66C176.729 193.66 174.719 196.15 174.459 199.22Z" fill="black"/>
<path d="M159.069 193.82C160.709 201.34 161.279 205.82 165.719 209.25C167.151 210.387 168.866 211.11 170.68 211.34C172.493 211.57 174.335 211.299 176.005 210.555C177.675 209.812 179.109 208.625 180.152 207.124C181.195 205.623 181.806 203.864 181.919 202.04C182.509 195.04 179.729 183.91 171.809 181.78C170.107 181.272 168.301 181.221 166.573 181.632C164.844 182.043 163.255 182.902 161.963 184.122C160.672 185.342 159.725 186.881 159.217 188.583C158.709 190.286 158.658 192.092 159.069 193.82Z" fill="#DBB178"/>
<path d="M157.329 201.67C158.547 203.14 160.236 204.143 162.109 204.51C164.479 204.91 165.019 202.72 163.809 200.59C162.729 198.68 160.179 196.17 158.059 196.73C155.939 197.29 155.799 199.82 157.329 201.67Z" fill="#DBB178"/>
<path d="M170.94 194.56C171.04 195.18 171.44 195.64 171.85 195.56C172.26 195.48 172.5 194.97 172.41 194.36C172.32 193.75 171.91 193.28 171.5 193.36C171.09 193.44 170.85 193.94 170.94 194.56Z" fill="#263238"/>
<path d="M177.999 193.73C178.089 194.35 178.499 194.81 178.899 194.73C179.299 194.65 179.559 194.14 179.469 193.52C179.379 192.9 178.959 192.45 178.559 192.52C178.159 192.59 177.849 193.11 177.999 193.73Z" fill="#263238"/>
<path d="M175.77 194.3C176.804 196.102 178.072 197.759 179.54 199.23C179.157 199.582 178.701 199.845 178.205 200.001C177.709 200.157 177.185 200.201 176.67 200.13L175.77 194.3Z" fill="#C0854B"/>
<path d="M168.429 192.57C168.37 192.583 168.309 192.583 168.249 192.57C168.207 192.547 168.169 192.516 168.139 192.478C168.108 192.44 168.086 192.397 168.073 192.35C168.06 192.303 168.056 192.254 168.063 192.206C168.069 192.158 168.085 192.112 168.109 192.07C168.378 191.56 168.769 191.124 169.247 190.801C169.725 190.478 170.276 190.279 170.849 190.22C170.897 190.216 170.945 190.222 170.99 190.237C171.036 190.252 171.077 190.276 171.113 190.308C171.148 190.34 171.177 190.379 171.197 190.422C171.217 190.465 171.228 190.512 171.229 190.56C171.233 190.608 171.228 190.657 171.213 190.702C171.198 190.748 171.174 190.791 171.142 190.827C171.11 190.863 171.072 190.893 171.028 190.914C170.985 190.935 170.938 190.947 170.889 190.95C170.438 191.001 170.007 191.163 169.633 191.421C169.26 191.679 168.956 192.026 168.749 192.43C168.712 192.478 168.663 192.516 168.607 192.54C168.551 192.565 168.49 192.575 168.429 192.57Z" fill="#263238"/>
<path d="M180.59 191C180.53 191.002 180.471 190.988 180.418 190.96C180.365 190.932 180.321 190.891 180.29 190.84C180.036 190.445 179.695 190.113 179.292 189.87C178.89 189.627 178.438 189.48 177.97 189.44C177.883 189.426 177.805 189.381 177.748 189.314C177.691 189.247 177.66 189.163 177.66 189.075C177.66 188.987 177.691 188.903 177.748 188.836C177.805 188.769 177.883 188.724 177.97 188.71C178.557 188.749 179.127 188.925 179.634 189.223C180.141 189.522 180.571 189.935 180.89 190.43C180.944 190.51 180.965 190.608 180.949 190.703C180.932 190.799 180.878 190.884 180.8 190.94C180.736 190.978 180.664 190.999 180.59 191Z" fill="#263238"/>
<path d="M160.539 203.71C160.539 203.71 165.319 198.82 162.979 186.82C162.979 186.82 166.829 190.09 175.769 187.67C175.769 187.67 170.479 188.19 168.059 185.67C168.059 185.67 172.989 187.96 180.959 185.67C180.959 185.67 179.539 177.6 170.959 177.19C170.959 177.19 173.729 174.86 176.399 175.31C176.399 175.31 173.669 172.96 166.739 177.53L163.999 178.65C163.999 178.65 156.279 175.87 151.999 182.41C148.589 187.58 150.299 203.86 160.539 203.71Z" fill="#263238"/>
<path d="M178.07 201.5C178.07 201.5 175.65 200.89 168.83 200.74C169.59 202.81 171.04 204.52 174.54 204.56C174.976 204.609 175.417 204.566 175.836 204.436C176.255 204.305 176.643 204.09 176.974 203.802C177.306 203.515 177.574 203.162 177.763 202.766C177.951 202.37 178.056 201.939 178.07 201.5Z" fill="#263238"/>
<path d="M173 202.91C174.344 202.861 175.67 203.235 176.79 203.98C176.136 204.399 175.365 204.598 174.59 204.55C173.251 204.606 171.93 204.231 170.82 203.48C171.468 203.065 172.231 202.866 173 202.91Z" fill="#A02724"/>
<path d="M177.759 201.44C177.688 201.691 177.549 201.918 177.356 202.094C177.164 202.271 176.926 202.391 176.669 202.44C174.655 202.393 172.648 202.179 170.669 201.8C170.353 201.772 170.049 201.666 169.783 201.491C169.518 201.317 169.3 201.079 169.149 200.8C172.032 200.791 174.91 201.005 177.759 201.44Z" fill="white"/>
<path d="M156.83 196.41V188.34C156.829 185.952 157.6 183.627 159.027 181.711C160.454 179.796 162.461 178.393 164.75 177.71L167.45 177.23C165.103 177.93 163.045 179.369 161.582 181.333C160.118 183.297 159.329 185.681 159.33 188.13V196.41H156.83Z" fill="#3F93DF"/>
<path d="M163.099 200.32C163.369 203.39 161.799 205.87 159.599 205.87C157.399 205.87 155.389 203.39 155.129 200.32C154.869 197.25 156.429 194.76 158.629 194.76C160.829 194.76 162.829 197.25 163.099 200.32Z" fill="#3F93DF"/>
<path opacity="0.5" d="M163.099 200.32C163.369 203.39 161.799 205.87 159.599 205.87C157.399 205.87 155.389 203.39 155.129 200.32C154.869 197.25 156.429 194.76 158.629 194.76C160.829 194.76 162.829 197.25 163.099 200.32Z" fill="black"/>
<path d="M161.769 200.32C162.029 203.39 160.469 205.87 158.259 205.87C156.049 205.87 154.059 203.39 153.789 200.32C153.519 197.25 155.089 194.76 157.289 194.76C159.489 194.76 161.499 197.25 161.769 200.32Z" fill="#3F93DF"/>
<path opacity="0.3" d="M159 201.13L158.82 199.51H159.13C158.73 197.92 157.61 196.73 156.38 196.73C155.15 196.73 154.25 197.92 154.12 199.51H154.33L154.51 201.13H154.27C154.67 202.72 155.79 203.9 157.01 203.9C158.23 203.9 159.15 202.72 159.27 201.13H159Z" fill="white"/>
<path d="M144.629 201L148.999 192.4L152.529 200.74C152.529 200.74 148.989 205.24 145.339 204.59L144.629 201Z" fill="#DBB178"/>
<path d="M155.79 189.23L158.36 196.38L152.52 200.74L149 192.4L155.79 189.23Z" fill="#DBB178"/>
<path d="M145.779 210.26L149.979 203.19L149.539 200.31L145.839 199L140.569 207.2L145.779 210.26Z" fill="#DBB178"/>
<path d="M148.81 205.86L141.14 222.74C141.14 222.74 144.87 219.39 146.93 218.91C150.21 218.14 160.11 221.13 150.08 232.02C150.08 232.02 130.22 244.43 126.17 239.62C123.02 235.88 136.4 213.15 142.53 203.19L148.81 205.86Z" fill="#3F93DF"/>
<path opacity="0.6" d="M148.81 205.86L141.14 222.74C141.14 222.74 144.87 219.39 146.93 218.91C150.21 218.14 160.11 221.13 150.08 232.02C150.08 232.02 130.22 244.43 126.17 239.62C123.02 235.88 136.4 213.15 142.53 203.19L148.81 205.86Z" fill="white"/>
<path opacity="0.2" d="M141.14 222.74L139 229.33L145.28 219.67C143.815 220.574 142.43 221.601 141.14 222.74Z" fill="black"/>
<path d="M169.869 207.77C169.03 207.791 168.19 207.738 167.359 207.61C165.219 206.84 163.149 205.89 161.169 204.77L161.569 204.05C163.491 205.128 165.498 206.048 167.569 206.8C169.699 206.976 171.84 206.976 173.969 206.8L174.029 207.63C173.869 207.63 171.769 207.77 169.869 207.77Z" fill="#3F93DF"/>
<path d="M170.77 207.94L174.77 207.64C174.77 207.64 174.66 206.4 172.77 206.45C170.88 206.5 170.77 207.94 170.77 207.94Z" fill="#3F93DF"/>
<g opacity="0.5">
<path d="M169.869 207.77C169.03 207.791 168.19 207.738 167.359 207.61C165.219 206.84 163.149 205.89 161.169 204.77L161.569 204.05C163.491 205.128 165.498 206.048 167.569 206.8C169.699 206.976 171.84 206.976 173.969 206.8L174.029 207.63C173.869 207.63 171.769 207.77 169.869 207.77Z" fill="black"/>
<path d="M170.77 207.94L174.77 207.64C174.77 207.64 174.66 206.4 172.77 206.45C170.88 206.5 170.77 207.94 170.77 207.94Z" fill="black"/>
</g>
<path d="M330.06 408.54C329.85 408.548 329.64 408.515 329.443 408.441C329.246 408.368 329.065 408.257 328.911 408.114C328.757 407.971 328.632 407.799 328.545 407.608C328.457 407.417 328.408 407.21 328.4 407L318.4 291.22C318.383 290.221 317.992 289.265 317.306 288.54C316.619 287.815 315.686 287.372 314.69 287.3H267.45C266.454 287.372 265.521 287.815 264.834 288.54C264.148 289.265 263.757 290.221 263.74 291.22L253.74 407C253.739 407.214 253.695 407.426 253.61 407.623C253.525 407.82 253.402 407.998 253.247 408.147C253.092 408.295 252.909 408.411 252.708 408.487C252.508 408.563 252.294 408.598 252.08 408.59C251.648 408.503 251.266 408.253 251.013 407.891C250.76 407.53 250.655 407.086 250.72 406.65L260.72 290.86C261.07 286.81 263.96 283.76 267.45 283.76H314.69C318.18 283.76 321.07 286.81 321.42 290.86L331.42 406.65C331.485 407.086 331.38 407.53 331.127 407.891C330.874 408.253 330.492 408.503 330.06 408.59V408.54Z" fill="#3F93DF"/>
<g opacity="0.4">
<path d="M330.06 408.54C329.85 408.548 329.64 408.515 329.443 408.441C329.246 408.368 329.065 408.257 328.911 408.114C328.757 407.971 328.632 407.799 328.545 407.608C328.457 407.417 328.408 407.21 328.4 407L318.4 291.22C318.383 290.221 317.992 289.265 317.306 288.54C316.619 287.815 315.686 287.372 314.69 287.3H267.45C266.454 287.372 265.521 287.815 264.834 288.54C264.148 289.265 263.757 290.221 263.74 291.22L253.74 407C253.739 407.214 253.695 407.426 253.61 407.623C253.525 407.82 253.402 407.998 253.247 408.147C253.092 408.295 252.909 408.411 252.708 408.487C252.508 408.563 252.294 408.598 252.08 408.59C251.648 408.503 251.266 408.253 251.013 407.891C250.76 407.53 250.655 407.086 250.72 406.65L260.72 290.86C261.07 286.81 263.96 283.76 267.45 283.76H314.69C318.18 283.76 321.07 286.81 321.42 290.86L331.42 406.65C331.485 407.086 331.38 407.53 331.127 407.891C330.874 408.253 330.492 408.503 330.06 408.59V408.54Z" fill="black"/>
</g>
<path d="M329.4 278.75H200.99C199.869 278.75 198.96 279.659 198.96 280.78V287.36C198.96 288.481 199.869 289.39 200.99 289.39H329.4C330.521 289.39 331.43 288.481 331.43 287.36V280.78C331.43 279.659 330.521 278.75 329.4 278.75Z" fill="#263238"/>
<path opacity="0.2" d="M273.3 278.75H329.4C329.93 278.75 330.439 278.961 330.814 279.336C331.189 279.711 331.4 280.22 331.4 280.75V287.33C331.4 287.86 331.189 288.369 330.814 288.744C330.439 289.119 329.93 289.33 329.4 289.33H273.3V278.75Z" fill="white"/>
<path d="M278.32 408.54C278.105 408.549 277.89 408.515 277.689 408.44C277.487 408.364 277.303 408.249 277.147 408.1C276.991 407.952 276.867 407.773 276.781 407.576C276.696 407.378 276.651 407.165 276.65 406.95L266.65 291.17C266.633 290.171 266.243 289.215 265.556 288.49C264.869 287.765 263.936 287.322 262.94 287.25H215.7C214.706 287.325 213.775 287.768 213.091 288.493C212.406 289.218 212.017 290.173 212 291.17L202 407C201.999 407.214 201.955 407.426 201.87 407.623C201.785 407.82 201.662 407.998 201.507 408.147C201.352 408.295 201.169 408.411 200.969 408.487C200.768 408.563 200.554 408.598 200.34 408.59C199.902 408.498 199.516 408.239 199.266 407.867C199.016 407.496 198.92 407.041 199 406.6L209 290.81C209.35 286.76 212.25 283.71 215.73 283.71H262.97C266.46 283.71 269.35 286.76 269.7 290.81L279.7 406.6C279.766 407.035 279.662 407.478 279.411 407.839C279.16 408.199 278.78 408.45 278.35 408.54H278.32Z" fill="#3F93DF"/>
<g opacity="0.4">
<path d="M278.32 408.54C278.105 408.549 277.89 408.515 277.689 408.44C277.487 408.364 277.303 408.249 277.147 408.1C276.991 407.952 276.867 407.773 276.781 407.576C276.696 407.378 276.651 407.165 276.65 406.95L266.65 291.17C266.633 290.171 266.243 289.215 265.556 288.49C264.869 287.765 263.936 287.322 262.94 287.25H215.7C214.706 287.325 213.775 287.768 213.091 288.493C212.406 289.218 212.017 290.173 212 291.17L202 407C201.999 407.214 201.955 407.426 201.87 407.623C201.785 407.82 201.662 407.998 201.507 408.147C201.352 408.295 201.169 408.411 200.969 408.487C200.768 408.563 200.554 408.598 200.34 408.59C199.902 408.498 199.516 408.239 199.266 407.867C199.016 407.496 198.92 407.041 199 406.6L209 290.81C209.35 286.76 212.25 283.71 215.73 283.71H262.97C266.46 283.71 269.35 286.76 269.7 290.81L279.7 406.6C279.766 407.035 279.662 407.478 279.411 407.839C279.16 408.199 278.78 408.45 278.35 408.54H278.32Z" fill="black"/>
</g>
<path d="M241.33 273.51H278.39V277C278.39 277.464 278.206 277.909 277.878 278.237C277.549 278.566 277.104 278.75 276.64 278.75H243.08C242.616 278.75 242.171 278.566 241.843 278.237C241.514 277.909 241.33 277.464 241.33 277V273.53V273.51Z" fill="#263238"/>
<path opacity="0.2" d="M241.33 273.51H278.39V277C278.39 277.464 278.206 277.909 277.878 278.237C277.549 278.566 277.104 278.75 276.64 278.75H243.08C242.616 278.75 242.171 278.566 241.843 278.237C241.514 277.909 241.33 277.464 241.33 277V273.53V273.51Z" fill="white"/>
<path d="M215.12 273.51H252.18V277C252.18 277.464 251.996 277.909 251.668 278.237C251.339 278.566 250.894 278.75 250.43 278.75H216.87C216.406 278.75 215.961 278.566 215.633 278.237C215.305 277.909 215.12 277.464 215.12 277V273.53V273.51Z" fill="#263238"/>
<path opacity="0.6" d="M215.12 273.51H252.18V277C252.18 277.464 251.996 277.909 251.668 278.237C251.339 278.566 250.894 278.75 250.43 278.75H216.87C216.406 278.75 215.961 278.566 215.633 278.237C215.305 277.909 215.12 277.464 215.12 277V273.53V273.51Z" fill="white"/>
<path d="M247.89 275.5H244.45V276.74H247.89V275.5Z" fill="#263238"/>
<path d="M242.38 275.5H238.94V276.74H242.38V275.5Z" fill="#263238"/>
<path d="M281 278.75H282.77C283.254 278.74 283.719 278.56 284.085 278.242C284.45 277.924 284.693 277.488 284.77 277.01L290.77 240.12C290.817 239.827 290.801 239.528 290.723 239.242C290.645 238.955 290.506 238.689 290.317 238.461C290.127 238.233 289.891 238.048 289.625 237.918C289.358 237.789 289.066 237.718 288.77 237.71L260 237.66L252.22 278.66H253.99L281 278.75Z" fill="#263238"/>
<path opacity="0.6" d="M281 278.75H282.77C283.254 278.74 283.719 278.56 284.085 278.242C284.45 277.924 284.693 277.488 284.77 277.01L290.77 240.12C290.817 239.827 290.801 239.528 290.723 239.242C290.645 238.955 290.506 238.689 290.317 238.461C290.127 238.233 289.891 238.048 289.625 237.918C289.358 237.789 289.066 237.718 288.77 237.71L260 237.66L252.22 278.66H253.99L281 278.75Z" fill="white"/>
<path opacity="0.2" d="M252.67 276.08L252.17 278.7H253.94L280.94 278.75H282.71C283.194 278.74 283.66 278.56 284.025 278.242C284.39 277.924 284.633 277.488 284.71 277.01L284.85 276.14L252.67 276.08Z" fill="black"/>
<path d="M252.21 278.73H254C254.484 278.72 254.95 278.54 255.315 278.222C255.68 277.904 255.923 277.468 256 276.99L262 240.08C262.047 239.788 262.031 239.489 261.953 239.203C261.875 238.917 261.736 238.652 261.547 238.424C261.357 238.197 261.121 238.013 260.854 237.884C260.587 237.756 260.296 237.686 260 237.68L252.21 278.73Z" fill="#263238"/>
<path opacity="0.3" d="M252.21 278.73H254C254.484 278.72 254.95 278.54 255.315 278.222C255.68 277.904 255.923 277.468 256 276.99L262 240.08C262.047 239.788 262.031 239.489 261.953 239.203C261.875 238.917 261.736 238.652 261.547 238.424C261.357 238.197 261.121 238.013 260.854 237.884C260.587 237.756 260.296 237.686 260 237.68L252.21 278.73Z" fill="white"/>
</g>
</svg>
