<svg width="803" height="943" viewBox="0 0 803 943" fill="none" xmlns="http://www.w3.org/2000/svg">
<path fill-rule="evenodd" clip-rule="evenodd" d="M48.0003 410C-16.3768 529 -9.50008 566 31.5001 599C72.5002 632 107 609 135.5 668.5C164 728 193.9 772.836 304.843 791.617C415.786 810.399 428.829 748.951 495.343 749.117C561.857 749.283 562.876 743.15 629.842 824.617C696.808 906.084 756.342 903.339 835.842 840.102C915.342 776.865 998.343 877.617 1116.36 840.102C1234.37 802.588 1253.66 802.331 1287.47 903.339C1300.68 942.786 1346.14 902.671 1359.34 942.117L1315.9 34.3338L1282.64 34.2509C1249.39 34.168 1182.87 34.0023 1116.36 33.8366C1049.84 33.6709 983.331 33.5052 916.817 33.3395C850.303 33.1738 783.788 33.0081 717.274 32.8424C650.76 32.6766 584.247 32.5109 517.733 32.3452C451.219 32.1795 384.705 32.0138 318.191 31.8481C251.677 31.6824 185.163 31.5167 151.906 31.4338C151.906 31.4338 169.16 34.7046 117.664 3.69685C66.167 -27.3109 245.726 158 117.664 182.5C-10.399 207 112.377 291 48.0003 410Z" fill="url(#paint0_linear_1208_17957)" fill-opacity="0.5"/>
<defs>
<linearGradient id="paint0_linear_1208_17957" x1="673.779" y1="940.409" x2="676.117" y2="1.72673" gradientUnits="userSpaceOnUse">
<stop stop-color="#3F93DF"/>
<stop offset="1" stop-color="#7709CD"/>
</linearGradient>
</defs>
</svg>
